<?xml version="1.0" encoding="UTF-8" standalone="no"?>
<!DOCTYPE svg PUBLIC "-//W3C//DTD SVG 1.1//EN" "http://www.w3.org/Graphics/SVG/1.1/DTD/svg11.dtd">
<svg width="100%" height="100%" viewBox="0 0 1920 1080" version="1.1" xmlns="http://www.w3.org/2000/svg" xmlns:xlink="http://www.w3.org/1999/xlink" xml:space="preserve" xmlns:serif="http://www.serif.com/" style="fill-rule:evenodd;clip-rule:evenodd;stroke-linecap:round;stroke-linejoin:round;stroke-miterlimit:1.5;">
    <g id="cameraframe">
        <g transform="matrix(6.53895e-17,1.06789,-0.683899,4.18767e-17,1282,-252.093)">
            <path d="M756.781,429.363L761.358,436.451L735.042,477.209L761.358,517.967L756.781,525.056L730.465,484.298L704.149,525.056L699.572,517.967L725.888,477.209L699.572,436.451L704.149,429.363L730.465,470.121L756.781,429.363Z" style="fill:rgb(235,235,235);stroke:black;stroke-width:2.31px;"/>
        </g>
        <g id="frames_dot" transform="matrix(1,0,0,1,-15.6977,6.97674)">
            <g id="left" transform="matrix(1,0,0,1,22.6744,-5.23256)">
                <g transform="matrix(0.542453,0,0,0.490566,-94.6896,-72.7688)">
                    <rect x="233.721" y="199.535" width="295.814" height="16.744" style="fill:rgb(235,235,235);"/>
                    <g transform="matrix(6.12323e-17,1,-1,6.12323e-17,450,-34.186)">
                        <rect x="233.721" y="199.535" width="295.814" height="16.744" style="fill:rgb(235,235,235);"/>
                    </g>
                </g>
                <g transform="matrix(3.32157e-17,-0.542453,0.490566,3.00385e-17,-65.792,1154.11)">
                    <rect x="233.721" y="199.535" width="295.814" height="16.744" style="fill:rgb(235,235,235);"/>
                    <g transform="matrix(6.12323e-17,1,-1,6.12323e-17,450,-34.186)">
                        <rect x="233.721" y="199.535" width="295.814" height="16.744" style="fill:rgb(235,235,235);"/>
                    </g>
                </g>
            </g>
            <g id="right">
                <g transform="matrix(-0.542453,0,0,0.490566,2014.69,-78.0013)">
                    <rect x="233.721" y="199.535" width="295.814" height="16.744" style="fill:rgb(235,235,235);"/>
                    <g transform="matrix(6.12323e-17,1,-1,6.12323e-17,450,-34.186)">
                        <rect x="233.721" y="199.535" width="295.814" height="16.744" style="fill:rgb(235,235,235);"/>
                    </g>
                </g>
                <g id="dot" transform="matrix(0.772113,0,0,0.772113,-1131.58,-23.7676)">
                    <circle cx="1640.93" cy="157.645" r="49.709" style="fill:rgb(242,13,13);"/>
                    <path d="M1640.93,107.936C1668.37,107.936 1690.64,130.21 1690.64,157.645C1690.64,185.08 1668.37,207.354 1640.93,207.354C1613.5,207.354 1591.22,185.08 1591.22,157.645C1591.22,130.21 1613.5,107.936 1640.93,107.936ZM1640.93,120.433C1620.39,120.433 1603.72,137.107 1603.72,157.645C1603.72,178.183 1620.39,194.858 1640.93,194.858C1661.47,194.858 1678.15,178.183 1678.15,157.645C1678.15,137.107 1661.47,120.433 1640.93,120.433Z" style="fill:rgb(202,41,30);"/>
                </g>
                <g transform="matrix(-3.32157e-17,-0.542453,-0.490566,3.00385e-17,1985.79,1148.88)">
                    <rect x="233.721" y="199.535" width="295.814" height="16.744" style="fill:rgb(235,235,235);"/>
                    <g transform="matrix(6.12323e-17,1,-1,6.12323e-17,450,-34.186)">
                        <rect x="233.721" y="199.535" width="295.814" height="16.744" style="fill:rgb(235,235,235);"/>
                    </g>
                </g>
            </g>
        </g>
        <g transform="matrix(0.755999,0,0,0.716001,1259.52,241.234)">
            <text x="139.117px" y="948.33px" style="font-family:'Consolas', monospace;font-size:48px;">&lt;</text>
            <path d="M162.527,948.22L159.973,950.798C158.984,951.796 157.45,951.872 156.378,950.976L140.628,937.828C139.97,937.278 139.586,936.442 139.586,935.557C139.586,934.671 139.97,933.835 140.628,933.286L156.378,920.137C157.454,919.239 158.994,919.319 159.982,920.324L162.536,922.926C163.108,923.509 163.413,924.325 163.371,925.163C163.329,926.001 162.944,926.778 162.317,927.294L152.307,935.522L162.329,943.852C162.953,944.371 163.333,945.15 163.372,945.988C163.41,946.826 163.102,947.64 162.527,948.22ZM160.633,946.127L147.859,935.51L160.633,925.01L158.078,922.408L142.328,935.557L158.078,948.705L160.633,946.127Z" style="fill:rgb(175,175,175);"/>
            <text x="165.508px" y="948.33px" style="font-family:'Consolas', monospace;font-size:48px;fill:rgb(39,234,94);">ISO 400</text>
            <path d="M216.95,935.422C216.905,934.693 216.883,933.941 216.883,933.166C216.883,930.09 217.264,927.423 217.989,925.16C218.76,922.753 219.827,920.775 221.153,919.204C222.542,917.559 224.166,916.342 226.019,915.544C227.814,914.771 229.714,914.38 231.719,914.38C234.133,914.38 236.23,914.848 238.021,915.729C239.891,916.649 241.445,917.966 242.685,919.676C243.859,921.294 244.751,923.26 245.328,925.589C245.859,927.728 246.132,930.136 246.132,932.814C246.132,935.927 245.746,938.613 245.012,940.877C244.233,943.28 243.163,945.255 241.84,946.823C240.45,948.469 238.82,949.687 236.957,950.485C235.155,951.258 233.253,951.647 231.25,951.647C228.84,951.647 226.746,951.185 224.958,950.315C223.078,949.4 221.521,948.077 220.285,946.348C219.289,944.955 218.499,943.309 217.937,941.398C217.783,942.842 217.381,944.138 216.754,945.293C215.946,946.781 214.826,948.026 213.381,949.014C212.073,949.909 210.506,950.593 208.668,951.035C206.992,951.439 205.144,951.647 203.125,951.647C202.245,951.647 201.369,951.613 200.498,951.545C199.65,951.48 198.835,951.397 198.053,951.298C197.254,951.197 196.501,951.079 195.794,950.945C195.072,950.807 194.418,950.66 193.833,950.505C192.614,950.182 191.758,949.025 191.758,947.697L191.758,943.666C191.758,942.726 192.19,941.845 192.917,941.302C193.644,940.76 194.575,940.623 195.414,940.937C196.445,941.321 197.603,941.62 198.888,941.839C200.22,942.067 201.734,942.177 203.43,942.177C204.551,942.177 205.507,942.099 206.296,941.923C206.859,941.798 207.328,941.639 207.686,941.393C207.835,941.291 207.963,941.187 208.03,941.041C208.133,940.817 208.164,940.556 208.164,940.268C208.164,940.165 208.163,940.069 208.106,939.996C207.832,939.649 207.464,939.351 207.019,939.078C206.39,938.691 205.671,938.34 204.864,938.019C203.898,937.634 202.912,937.237 201.906,936.829C200.844,936.398 199.804,935.929 198.784,935.423C197.608,934.84 196.563,934.148 195.646,933.355C194.623,932.471 193.799,931.431 193.17,930.237C192.5,928.965 192.133,927.462 192.133,925.713C192.133,924.261 192.429,922.829 193.035,921.42C193.641,920.015 194.568,918.755 195.844,917.663C197.001,916.672 198.477,915.851 200.292,915.243C201.97,914.68 203.967,914.38 206.289,914.38C206.867,914.38 207.493,914.406 208.167,914.458C208.82,914.509 209.481,914.581 210.151,914.675C210.805,914.766 211.45,914.869 212.086,914.985C212.741,915.104 213.349,915.232 213.91,915.368C215.156,915.67 216.039,916.84 216.039,918.189L216.039,921.939C216.039,922.841 215.641,923.691 214.963,924.238C214.285,924.786 213.405,924.969 212.581,924.734C211.488,924.422 210.396,924.184 209.303,924.021C208.233,923.861 207.197,923.78 206.195,923.78C204.509,923.78 203.243,923.922 202.449,924.484C202.159,924.69 201.976,924.944 201.976,925.291C201.976,925.404 201.984,925.508 202.046,925.589C202.321,925.942 202.692,926.247 203.139,926.526C203.763,926.916 204.477,927.268 205.277,927.586C206.243,927.971 207.229,928.368 208.235,928.777C209.301,929.21 210.347,929.685 211.373,930.202C212.552,930.796 213.599,931.504 214.52,932.319C215.52,933.204 216.329,934.239 216.95,935.422ZM243.391,932.814C243.391,930.408 243.152,928.244 242.676,926.322C242.199,924.4 241.477,922.771 240.508,921.435C239.539,920.1 238.324,919.072 236.863,918.353C235.402,917.635 233.688,917.275 231.719,917.275C230.078,917.275 228.523,917.592 227.055,918.225C225.586,918.857 224.301,919.826 223.199,921.131C222.098,922.435 221.227,924.088 220.586,926.088C219.945,928.088 219.625,930.447 219.625,933.166C219.625,935.588 219.859,937.764 220.328,939.693C220.797,941.623 221.512,943.26 222.473,944.603C223.434,945.947 224.645,946.975 226.105,947.685C227.566,948.396 229.281,948.752 231.25,948.752C232.891,948.752 234.449,948.435 235.926,947.803C237.402,947.17 238.691,946.201 239.793,944.896C240.895,943.592 241.77,941.939 242.418,939.939C243.066,937.939 243.391,935.564 243.391,932.814ZM239.055,933.119C239.055,934.775 238.906,936.33 238.609,937.783C238.313,939.236 237.855,940.506 237.238,941.592C236.621,942.678 235.836,943.537 234.883,944.17C233.93,944.803 232.797,945.119 231.484,945.119C230.141,945.119 228.992,944.822 228.039,944.228C227.086,943.635 226.309,942.803 225.707,941.732C225.105,940.662 224.664,939.381 224.383,937.889C224.102,936.396 223.961,934.744 223.961,932.932C223.961,931.291 224.109,929.74 224.406,928.279C224.703,926.818 225.156,925.545 225.766,924.459C226.375,923.373 227.152,922.514 228.098,921.881C229.043,921.248 230.172,920.932 231.484,920.932C232.844,920.932 234.004,921.228 234.965,921.822C235.926,922.416 236.711,923.252 237.32,924.33C237.93,925.408 238.371,926.693 238.645,928.185C238.918,929.678 239.055,931.322 239.055,933.119ZM236.313,933.119C236.313,931.523 236.196,930.061 235.953,928.735C235.746,927.607 235.427,926.629 234.966,925.814C234.605,925.176 234.149,924.672 233.58,924.321C233.004,923.965 232.299,923.827 231.484,923.827C230.744,923.827 230.099,923.969 229.566,924.326C228.979,924.719 228.503,925.26 228.125,925.935C227.654,926.772 227.316,927.759 227.087,928.887C226.829,930.157 226.703,931.505 226.703,932.932C226.703,934.537 226.823,936.002 227.072,937.324C227.286,938.459 227.607,939.44 228.065,940.255C228.42,940.886 228.87,941.385 229.432,941.735C229.998,942.087 230.687,942.224 231.484,942.224C232.23,942.224 232.882,942.079 233.423,941.719C234.018,941.324 234.502,940.78 234.887,940.102C235.361,939.268 235.701,938.289 235.929,937.173C236.187,935.91 236.313,934.558 236.313,933.119ZM215.266,940.033C215.266,938.814 215.035,937.76 214.574,936.869C214.113,935.978 213.508,935.201 212.758,934.537C212.008,933.873 211.152,933.299 210.191,932.814C209.23,932.33 208.25,931.885 207.25,931.478C206.25,931.072 205.27,930.678 204.309,930.295C203.348,929.912 202.492,929.486 201.742,929.018C200.992,928.549 200.387,928.018 199.926,927.424C199.465,926.83 199.234,926.119 199.234,925.291C199.234,923.947 199.797,922.877 200.922,922.08C202.047,921.283 203.805,920.885 206.195,920.885C207.32,920.885 208.484,920.975 209.688,921.154C210.891,921.334 212.094,921.596 213.297,921.939L213.297,918.189C212.781,918.064 212.223,917.947 211.621,917.838C211.02,917.728 210.41,917.631 209.793,917.545C209.176,917.459 208.566,917.393 207.965,917.346C207.363,917.299 206.805,917.275 206.289,917.275C204.289,917.275 202.566,917.518 201.121,918.002C199.676,918.486 198.492,919.123 197.57,919.912C196.648,920.701 195.969,921.603 195.531,922.619C195.094,923.635 194.875,924.666 194.875,925.713C194.875,926.916 195.105,927.955 195.566,928.83C196.027,929.705 196.633,930.467 197.383,931.115C198.133,931.764 198.988,932.326 199.949,932.803C200.91,933.279 201.891,933.721 202.891,934.127C203.891,934.533 204.871,934.928 205.832,935.31C206.793,935.693 207.648,936.115 208.398,936.576C209.148,937.037 209.754,937.56 210.215,938.146C210.676,938.732 210.906,939.439 210.906,940.268C210.906,941.033 210.77,941.713 210.496,942.307C210.223,942.9 209.785,943.404 209.184,943.818C208.582,944.232 207.809,944.545 206.863,944.756C205.918,944.967 204.773,945.072 203.43,945.072C201.57,945.072 199.91,944.947 198.449,944.697C196.988,944.447 195.672,944.103 194.5,943.666L194.5,947.697C195.031,947.838 195.625,947.971 196.281,948.096C196.938,948.221 197.637,948.33 198.379,948.424C199.121,948.518 199.895,948.596 200.699,948.658C201.504,948.721 202.313,948.752 203.125,948.752C204.922,948.752 206.566,948.572 208.059,948.213C209.551,947.853 210.828,947.31 211.891,946.584C212.953,945.857 213.781,944.947 214.375,943.853C214.969,942.76 215.266,941.486 215.266,940.033ZM296.834,935.149C296.799,934.465 296.782,933.757 296.782,933.025C296.782,930.416 297.054,928.033 297.584,925.876C298.154,923.56 299.018,921.582 300.148,919.929C301.356,918.162 302.87,916.796 304.686,915.828C306.463,914.881 308.528,914.38 310.891,914.38C312.933,914.38 314.788,914.778 316.461,915.546C318.219,916.354 319.727,917.593 320.974,919.279C322.126,920.838 323.036,922.805 323.66,925.205C323.744,925.53 323.823,925.865 323.896,926.208L323.975,925.876C324.545,923.56 325.408,921.582 326.539,919.929C327.746,918.162 329.26,916.796 331.077,915.828C332.854,914.881 334.918,914.38 337.281,914.38C339.324,914.38 341.179,914.778 342.852,915.546C344.609,916.354 346.118,917.593 347.364,919.279C348.517,920.838 349.427,922.805 350.05,925.205C350.622,927.405 350.922,930.011 350.922,933.025C350.922,935.632 350.654,938.008 350.132,940.155C349.57,942.469 348.704,944.449 347.561,946.108C346.346,947.87 344.836,949.231 343.034,950.197C341.266,951.144 339.196,951.647 336.813,951.647C334.77,951.647 332.915,951.249 331.242,950.481C329.486,949.674 327.98,948.441 326.734,946.767C325.58,945.215 324.668,943.249 324.043,940.846C323.96,940.526 323.883,940.198 323.811,939.861L323.742,940.155C323.18,942.469 322.313,944.449 321.17,946.108C319.956,947.87 318.445,949.231 316.643,950.197C314.875,951.144 312.805,951.647 310.422,951.647C308.379,951.647 306.524,951.249 304.852,950.481C303.096,949.674 301.589,948.441 300.344,946.767C299.603,945.771 298.963,944.606 298.433,943.264C297.935,943.984 297.128,944.452 296.219,944.452L293.734,944.452L293.734,948.33C293.734,949.929 292.506,951.225 290.992,951.225L286.82,951.225C285.306,951.225 284.078,949.929 284.078,948.33L284.078,944.452L272.078,944.452C270.564,944.452 269.336,943.155 269.336,941.557L269.336,937.971C269.336,937.39 269.502,936.823 269.811,936.343L282.865,916.069C283.376,915.277 284.225,914.802 285.133,914.802L290.992,914.802C292.506,914.802 293.734,916.098 293.734,917.697L293.734,935.076L296.219,935.076C296.43,935.076 296.636,935.101 296.834,935.149ZM296.219,941.557L296.219,937.971L290.992,937.971L290.992,917.697L285.133,917.697L272.078,937.971L272.078,941.557L286.82,941.557L286.82,948.33L290.992,948.33L290.992,941.557L296.219,941.557ZM286.82,921.635L286.82,937.971L276.156,937.971L286.82,921.635ZM284.078,930.936L281.376,935.076L284.078,935.076L284.078,930.936ZM321.789,933.025C321.789,930.307 321.531,927.955 321.016,925.971C320.5,923.986 319.766,922.35 318.813,921.06C317.859,919.771 316.711,918.818 315.367,918.201C314.023,917.584 312.531,917.275 310.891,917.275C309,917.275 307.344,917.654 305.922,918.412C304.5,919.17 303.316,920.24 302.371,921.623C301.426,923.006 300.715,924.666 300.238,926.603C299.762,928.541 299.523,930.682 299.523,933.025C299.523,935.744 299.781,938.096 300.297,940.08C300.813,942.064 301.547,943.697 302.5,944.978C303.453,946.26 304.602,947.209 305.945,947.826C307.289,948.443 308.781,948.752 310.422,948.752C312.328,948.752 313.988,948.373 315.402,947.615C316.816,946.857 318,945.787 318.953,944.404C319.906,943.021 320.617,941.365 321.086,939.435C321.555,937.506 321.789,935.369 321.789,933.025ZM303.648,932.885C303.648,930.9 303.813,929.154 304.141,927.646C304.469,926.139 304.938,924.873 305.547,923.85C306.156,922.826 306.895,922.057 307.762,921.541C308.629,921.025 309.594,920.768 310.656,920.768C311.453,920.768 312.172,920.9 312.813,921.166C313.453,921.432 314.023,921.803 314.523,922.279C315.023,922.756 315.453,923.322 315.813,923.978C316.172,924.635 316.469,925.361 316.703,926.158L303.742,935.744C303.695,935.291 303.668,934.822 303.66,934.338C303.652,933.853 303.648,933.369 303.648,932.885ZM313.279,925.156C313.105,924.883 312.908,924.64 312.686,924.428C312.431,924.185 312.138,923.996 311.81,923.861C311.468,923.719 311.082,923.663 310.656,923.663C310.089,923.663 309.57,923.788 309.107,924.064C308.615,924.356 308.214,924.81 307.868,925.39C307.403,926.171 307.063,927.144 306.813,928.295C306.687,928.874 306.59,929.494 306.521,930.154L313.279,925.156ZM317.664,933.166C317.664,935.15 317.5,936.896 317.172,938.404C316.844,939.912 316.375,941.174 315.766,942.189C315.156,943.205 314.418,943.971 313.551,944.486C312.684,945.002 311.719,945.26 310.656,945.26C309.828,945.26 309.09,945.123 308.441,944.85C307.793,944.576 307.215,944.193 306.707,943.701C306.199,943.209 305.766,942.619 305.406,941.932C305.047,941.244 304.75,940.494 304.516,939.682L317.477,930.049C317.523,930.549 317.566,931.06 317.605,931.584C317.645,932.107 317.664,932.635 317.664,933.166ZM307.901,940.705C308.09,941.034 308.308,941.323 308.561,941.568C308.824,941.823 309.123,942.02 309.458,942.161C309.808,942.309 310.209,942.365 310.656,942.365C311.224,942.365 311.742,942.239 312.205,941.964C312.699,941.67 313.103,941.218 313.449,940.64C313.913,939.868 314.25,938.902 314.5,937.756C314.647,937.079 314.754,936.347 314.824,935.561L307.901,940.705ZM348.18,933.025C348.18,930.307 347.922,927.955 347.406,925.971C346.891,923.986 346.156,922.35 345.203,921.06C344.25,919.771 343.102,918.818 341.758,918.201C340.414,917.584 338.922,917.275 337.281,917.275C335.391,917.275 333.734,917.654 332.313,918.412C330.891,919.17 329.707,920.24 328.762,921.623C327.816,923.006 327.105,924.666 326.629,926.603C326.152,928.541 325.914,930.682 325.914,933.025C325.914,935.744 326.172,938.096 326.688,940.08C327.203,942.064 327.938,943.697 328.891,944.978C329.844,946.26 330.992,947.209 332.336,947.826C333.68,948.443 335.172,948.752 336.813,948.752C338.719,948.752 340.379,948.373 341.793,947.615C343.207,946.857 344.391,945.787 345.344,944.404C346.297,943.021 347.008,941.365 347.477,939.435C347.945,937.506 348.18,935.369 348.18,933.025ZM344.055,933.166C344.055,935.15 343.891,936.896 343.563,938.404C343.234,939.912 342.766,941.174 342.156,942.189C341.547,943.205 340.809,943.971 339.941,944.486C339.074,945.002 338.109,945.26 337.047,945.26C336.219,945.26 335.48,945.123 334.832,944.85C334.184,944.576 333.605,944.193 333.098,943.701C332.59,943.209 332.156,942.619 331.797,941.932C331.438,941.244 331.141,940.494 330.906,939.682L343.867,930.049C343.914,930.549 343.957,931.06 343.996,931.584C344.035,932.107 344.055,932.635 344.055,933.166ZM334.292,940.705C334.481,941.034 334.699,941.323 334.952,941.568C335.214,941.823 335.514,942.02 335.849,942.161C336.199,942.309 336.6,942.365 337.047,942.365C337.614,942.365 338.133,942.239 338.596,941.964C339.089,941.67 339.493,941.218 339.84,940.64C340.303,939.868 340.641,938.902 340.89,937.756C341.038,937.079 341.145,936.347 341.214,935.561L334.292,940.705ZM330.039,932.885C330.039,930.9 330.203,929.154 330.531,927.646C330.859,926.139 331.328,924.873 331.938,923.85C332.547,922.826 333.285,922.057 334.152,921.541C335.02,921.025 335.984,920.768 337.047,920.768C337.844,920.768 338.563,920.9 339.203,921.166C339.844,921.432 340.414,921.803 340.914,922.279C341.414,922.756 341.844,923.322 342.203,923.978C342.563,924.635 342.859,925.361 343.094,926.158L330.133,935.744C330.086,935.291 330.059,934.822 330.051,934.338C330.043,933.853 330.039,933.369 330.039,932.885ZM339.669,925.156C339.495,924.883 339.299,924.64 339.077,924.428C338.821,924.185 338.529,923.996 338.201,923.861C337.859,923.719 337.473,923.663 337.047,923.663C336.479,923.663 335.961,923.788 335.498,924.064C335.006,924.356 334.604,924.81 334.259,925.39C333.794,926.171 333.454,927.144 333.203,928.295C333.077,928.874 332.981,929.494 332.912,930.154L339.669,925.156ZM173.852,924.108L169.539,924.108C168.025,924.108 166.797,922.812 166.797,921.213L166.797,917.697C166.797,916.098 168.025,914.802 169.539,914.802L187.867,914.802C189.381,914.802 190.609,916.098 190.609,917.697L190.609,921.213C190.609,922.812 189.381,924.108 187.867,924.108L183.554,924.108L183.554,941.872L187.867,941.872C189.381,941.872 190.609,943.169 190.609,944.768L190.609,948.33C190.609,949.929 189.381,951.225 187.867,951.225L169.539,951.225C168.025,951.225 166.797,949.929 166.797,948.33L166.797,944.768C166.797,943.169 168.025,941.872 169.539,941.872L173.852,941.872L173.852,924.108ZM176.594,921.213L176.594,944.768L169.539,944.768L169.539,948.33L187.867,948.33L187.867,944.768L180.813,944.768L180.813,921.213L187.867,921.213L187.867,917.697L169.539,917.697L169.539,921.213L176.594,921.213Z" style="fill:rgb(6,255,0);"/>
            <text x="350.242px" y="948.33px" style="font-family:'Consolas', monospace;font-size:48px;">&gt;  &lt;</text>
            <path d="M353.228,922.935L355.759,920.334C356.746,919.319 358.292,919.235 359.372,920.137L375.122,933.286C375.78,933.835 376.164,934.671 376.164,935.557C376.164,936.442 375.78,937.278 375.122,937.828L359.372,950.976C358.296,951.875 356.756,951.795 355.768,950.789L353.237,948.21C352.665,947.628 352.361,946.813 352.403,945.975C352.444,945.138 352.828,944.36 353.454,943.844L363.466,935.596L353.447,927.286C352.825,926.771 352.445,925.997 352.403,925.163C352.361,924.33 352.662,923.517 353.228,922.935ZM355.141,925.01L367.914,935.603L355.141,946.127L357.672,948.705L373.422,935.557L357.672,922.408L355.141,925.01ZM452.824,948.22L450.269,950.798C449.281,951.796 447.747,951.872 446.674,950.976L430.924,937.828C430.267,937.278 429.883,936.442 429.883,935.557C429.883,934.671 430.267,933.835 430.924,933.286L446.674,920.137C447.751,919.239 449.291,919.319 450.278,920.324L452.833,922.926C453.405,923.509 453.71,924.325 453.668,925.163C453.626,926.001 453.241,926.778 452.614,927.294L442.604,935.522L452.626,943.852C453.25,944.371 453.63,945.15 453.668,945.988C453.706,946.826 453.398,947.64 452.824,948.22ZM450.93,946.127L438.156,935.51L450.93,925.01L448.375,922.408L432.625,935.557L448.375,948.705L450.93,946.127Z" style="fill:rgb(175,175,175);"/>
            <text x="455.805px" y="948.33px" style="font-family:'Consolas', monospace;font-size:48px;fill:rgb(221,0,0);">AF</text>
            <path d="M484.258,946.486L484.258,917.697C484.258,916.098 485.486,914.802 487,914.802L504.273,914.802C505.788,914.802 507.015,916.098 507.015,917.697L507.015,921.26C507.015,922.859 505.788,924.155 504.273,924.155L494.007,924.155L494.008,928.302L503.594,928.302C505.108,928.302 506.336,929.598 506.336,931.197L506.336,934.689C506.336,936.288 505.108,937.584 503.594,937.584L494.007,937.584L494.007,948.33C494.007,949.929 492.78,951.225 491.266,951.225L487,951.225C485.87,951.225 484.9,950.503 484.48,949.473C484.404,949.66 484.308,949.84 484.194,950.01C483.68,950.772 482.848,951.225 481.961,951.225L477.414,951.225C476.237,951.225 475.192,950.432 474.816,949.255L473.312,944.545L464.493,944.545L462.97,949.264C462.592,950.437 461.548,951.225 460.375,951.225L456.039,951.225C455.15,951.225 454.317,950.77 453.802,950.005C453.288,949.239 453.158,948.258 453.452,947.372L463.624,916.739C464.009,915.579 465.046,914.802 466.211,914.802L471.93,914.802C473.099,914.802 474.139,915.585 474.521,916.751L484.258,946.486ZM481.961,948.33L471.93,917.697L466.211,917.697L456.039,948.33L460.375,948.33L462.531,941.65L475.281,941.65L477.414,948.33L481.961,948.33ZM474.086,937.924L463.727,937.924L468.906,921.541L474.086,937.924ZM470.28,935.029L468.906,930.684L467.532,935.029L470.28,935.029ZM504.273,921.26L504.273,917.697L487,917.697L487,948.33L491.266,948.33L491.266,934.689L503.594,934.689L503.594,931.197L491.266,931.197L491.266,921.26L504.273,921.26Z" style="fill:rgb(255,85,85);"/>
            <text x="508.586px" y="948.33px" style="font-family:'Consolas', monospace;font-size:48px;">&gt; &lt;</text>
            <path d="M511.572,922.935L514.103,920.334C515.09,919.319 516.636,919.235 517.716,920.137L533.466,933.286C534.124,933.835 534.507,934.671 534.507,935.557C534.507,936.442 534.124,937.278 533.466,937.828L517.716,950.976C516.64,951.875 515.1,951.795 514.112,950.789L511.581,948.21C511.009,947.628 510.705,946.813 510.746,945.975C510.788,945.138 511.171,944.36 511.798,943.844L521.81,935.596L511.791,927.286C511.169,926.771 510.788,925.997 510.746,925.163C510.704,924.33 511.005,923.517 511.572,922.935ZM513.484,925.01L526.258,935.603L513.484,946.127L516.016,948.705L531.766,935.557L516.016,922.408L513.484,925.01ZM584.777,948.22L582.223,950.798C581.234,951.796 579.7,951.872 578.628,950.976L562.878,937.828C562.22,937.278 561.836,936.442 561.836,935.557C561.836,934.671 562.22,933.835 562.878,933.286L578.628,920.137C579.704,919.239 581.244,919.319 582.232,920.324L584.786,922.926C585.358,923.509 585.663,924.325 585.621,925.163C585.579,926.001 585.194,926.778 584.567,927.294L574.557,935.522L584.579,943.852C585.203,944.371 585.583,945.15 585.622,945.988C585.66,946.826 585.352,947.64 584.777,948.22ZM582.883,946.127L570.109,935.51L582.883,925.01L580.328,922.408L564.578,935.557L580.328,948.705L582.883,946.127Z" style="fill:rgb(175,175,175);"/>
            <text x="587.758px" y="948.33px" style="font-family:'Consolas', monospace;font-size:48px;fill:white;">1080p</text>
            <path d="M662.875,932.204C663.42,932.666 663.917,933.159 664.365,933.68C665.162,934.606 665.78,935.641 666.222,936.782C666.338,937.083 666.441,937.393 666.528,937.712C666.344,936.278 666.25,934.716 666.25,933.025C666.25,930.416 666.523,928.033 667.053,925.876C667.623,923.56 668.487,921.582 669.617,919.929C670.825,918.162 672.338,916.796 674.155,915.828C675.932,914.881 677.997,914.38 680.359,914.38C682.402,914.38 684.257,914.778 685.93,915.546C687.687,916.354 689.196,917.593 690.442,919.279C691.595,920.838 692.505,922.805 693.129,925.205C693.7,927.405 694,930.011 694,933.025C694,935.632 693.732,938.008 693.211,940.155C692.648,942.469 691.782,944.449 690.639,946.108C689.424,947.87 687.914,949.231 686.112,950.197C684.344,951.144 682.274,951.647 679.891,951.647C677.848,951.647 675.993,951.249 674.32,950.481C672.564,949.674 671.058,948.441 669.813,946.767C668.658,945.215 667.746,943.249 667.121,940.846C667.034,940.508 666.952,940.161 666.878,939.804C666.896,940.078 666.906,940.358 666.906,940.643C666.906,942.47 666.511,944.088 665.763,945.507C665.028,946.902 664.006,948.081 662.687,949.033C661.493,949.895 660.087,950.563 658.462,951.013C656.951,951.432 655.313,951.647 653.547,951.647C651.596,951.647 649.878,951.416 648.392,950.978C646.759,950.497 645.4,949.807 644.298,948.946C643.072,947.987 642.157,946.841 641.533,945.525C640.909,944.21 640.586,942.764 640.586,941.182C640.586,938.598 641.328,936.377 642.771,934.504C643.28,933.843 643.895,933.201 644.622,932.581C644.073,932.076 643.603,931.557 643.209,931.026C641.902,929.264 641.243,927.245 641.243,924.963C641.243,923.558 641.528,922.197 642.108,920.882C642.679,919.587 643.53,918.425 644.683,917.415C645.743,916.486 647.062,915.726 648.657,915.17C650.135,914.656 651.873,914.38 653.875,914.38C655.721,914.38 657.342,914.589 658.74,914.982C660.3,915.42 661.601,916.065 662.661,916.881C663.858,917.801 664.747,918.926 665.345,920.238C665.923,921.505 666.226,922.914 666.226,924.471C666.226,926.984 665.498,929.113 664.098,930.877C663.734,931.335 663.327,931.777 662.875,932.204ZM691.258,933.025C691.258,930.307 691,927.955 690.484,925.971C689.969,923.986 689.234,922.35 688.281,921.06C687.328,919.771 686.18,918.818 684.836,918.201C683.492,917.584 682,917.275 680.359,917.275C678.469,917.275 676.813,917.654 675.391,918.412C673.969,919.17 672.785,920.24 671.84,921.623C670.895,923.006 670.184,924.666 669.707,926.603C669.23,928.541 668.992,930.682 668.992,933.025C668.992,935.744 669.25,938.096 669.766,940.08C670.281,942.064 671.016,943.697 671.969,944.978C672.922,946.26 674.07,947.209 675.414,947.826C676.758,948.443 678.25,948.752 679.891,948.752C681.797,948.752 683.457,948.373 684.871,947.615C686.285,946.857 687.469,945.787 688.422,944.404C689.375,943.021 690.086,941.365 690.555,939.435C691.023,937.506 691.258,935.369 691.258,933.025ZM673.117,932.885C673.117,930.9 673.281,929.154 673.609,927.646C673.938,926.139 674.406,924.873 675.016,923.85C675.625,922.826 676.363,922.057 677.23,921.541C678.098,921.025 679.063,920.768 680.125,920.768C680.922,920.768 681.641,920.9 682.281,921.166C682.922,921.432 683.492,921.803 683.992,922.279C684.492,922.756 684.922,923.322 685.281,923.978C685.641,924.635 685.938,925.361 686.172,926.158L673.211,935.744C673.164,935.291 673.137,934.822 673.129,934.338C673.121,933.853 673.117,933.369 673.117,932.885ZM682.747,925.156C682.574,924.883 682.377,924.64 682.155,924.428C681.899,924.185 681.607,923.996 681.279,923.861C680.937,923.719 680.551,923.663 680.125,923.663C679.557,923.663 679.039,923.788 678.576,924.064C678.084,924.356 677.682,924.81 677.337,925.39C676.872,926.171 676.532,927.144 676.282,928.295C676.156,928.874 676.059,929.494 675.99,930.154L682.747,925.156ZM687.133,933.166C687.133,935.15 686.969,936.896 686.641,938.404C686.313,939.912 685.844,941.174 685.234,942.189C684.625,943.205 683.887,943.971 683.02,944.486C682.152,945.002 681.188,945.26 680.125,945.26C679.297,945.26 678.559,945.123 677.91,944.85C677.262,944.576 676.684,944.193 676.176,943.701C675.668,943.209 675.234,942.619 674.875,941.932C674.516,941.244 674.219,940.494 673.984,939.682L686.945,930.049C686.992,930.549 687.035,931.06 687.074,931.584C687.113,932.107 687.133,932.635 687.133,933.166ZM677.37,940.705C677.559,941.034 677.777,941.323 678.03,941.568C678.292,941.823 678.592,942.02 678.927,942.161C679.277,942.309 679.678,942.365 680.125,942.365C680.693,942.365 681.211,942.239 681.674,941.964C682.167,941.67 682.572,941.218 682.918,940.64C683.381,939.868 683.719,938.902 683.968,937.756C684.116,937.079 684.223,936.347 684.293,935.561L677.37,940.705ZM664.164,940.643C664.164,939.627 664.004,938.705 663.684,937.877C663.363,937.049 662.914,936.299 662.336,935.627C661.758,934.955 661.078,934.346 660.297,933.799C659.516,933.252 658.672,932.752 657.766,932.299C659.594,931.361 661.004,930.268 661.996,929.018C662.988,927.768 663.484,926.252 663.484,924.471C663.484,923.377 663.281,922.385 662.875,921.494C662.469,920.603 661.859,919.846 661.047,919.221C660.234,918.596 659.23,918.115 658.035,917.779C656.84,917.443 655.453,917.275 653.875,917.275C652.203,917.275 650.75,917.49 649.516,917.92C648.281,918.35 647.254,918.924 646.434,919.643C645.613,920.361 645,921.182 644.594,922.103C644.188,923.025 643.984,923.978 643.984,924.963C643.984,926.572 644.445,927.998 645.367,929.24C646.289,930.482 647.75,931.611 649.75,932.627C647.563,933.736 645.945,934.971 644.898,936.33C643.852,937.689 643.328,939.307 643.328,941.182C643.328,942.291 643.547,943.307 643.984,944.228C644.422,945.15 645.07,945.947 645.93,946.619C646.789,947.291 647.855,947.814 649.129,948.189C650.402,948.564 651.875,948.752 653.547,948.752C655.063,948.752 656.469,948.572 657.766,948.213C659.063,947.853 660.188,947.33 661.141,946.643C662.094,945.955 662.836,945.107 663.367,944.1C663.898,943.092 664.164,941.939 664.164,940.643ZM659.734,940.947C659.734,941.697 659.578,942.342 659.266,942.881C658.953,943.42 658.527,943.865 657.988,944.217C657.449,944.568 656.813,944.83 656.078,945.002C655.344,945.174 654.563,945.26 653.734,945.26C652.875,945.26 652.078,945.166 651.344,944.978C650.609,944.791 649.977,944.51 649.445,944.135C648.914,943.76 648.496,943.303 648.191,942.764C647.887,942.225 647.734,941.603 647.734,940.9C647.734,940.275 647.828,939.682 648.016,939.119C648.203,938.557 648.52,938.014 648.965,937.49C649.41,936.967 649.996,936.451 650.723,935.943C651.449,935.435 652.344,934.924 653.406,934.408C654.656,934.971 655.688,935.518 656.5,936.049C657.313,936.58 657.961,937.111 658.445,937.643C658.93,938.174 659.266,938.713 659.453,939.26C659.641,939.807 659.734,940.369 659.734,940.947ZM656.993,940.947C656.993,940.707 656.953,940.473 656.875,940.245C656.804,940.038 656.653,939.851 656.47,939.65C656.12,939.267 655.643,938.894 655.056,938.51C654.602,938.213 654.068,937.912 653.456,937.605C653.001,937.856 652.595,938.107 652.236,938.357C651.73,938.711 651.315,939.06 651.005,939.425C650.823,939.639 650.679,939.85 650.602,940.08C650.516,940.339 650.476,940.613 650.476,940.9C650.476,941.042 650.485,941.172 650.546,941.28C650.647,941.459 650.793,941.603 650.969,941.728C651.253,941.928 651.596,942.064 651.988,942.165C652.524,942.301 653.107,942.365 653.734,942.365C654.353,942.365 654.936,942.304 655.485,942.175C655.891,942.08 656.249,941.948 656.547,941.754C656.705,941.651 656.836,941.527 656.927,941.369C656.994,941.254 656.993,941.108 656.993,940.947ZM659.313,924.799C659.313,925.986 658.883,927.029 658.023,927.928C657.164,928.826 655.852,929.689 654.086,930.518C653.07,930.064 652.195,929.619 651.461,929.182C650.727,928.744 650.113,928.299 649.621,927.846C649.129,927.393 648.766,926.908 648.531,926.393C648.297,925.877 648.18,925.314 648.18,924.705C648.18,923.361 648.668,922.353 649.645,921.682C650.621,921.01 651.984,920.674 653.734,920.674C655.5,920.674 656.871,921.014 657.848,921.693C658.824,922.373 659.313,923.408 659.313,924.799ZM656.571,924.799C656.571,924.506 656.544,924.254 656.339,924.11C655.725,923.683 654.844,923.569 653.734,923.569C652.633,923.569 651.756,923.684 651.141,924.107C650.957,924.234 650.922,924.451 650.922,924.705C650.922,924.861 650.943,925.008 651.003,925.14C651.09,925.331 651.241,925.496 651.423,925.664C651.793,926.004 652.257,926.332 652.808,926.66C653.181,926.882 653.594,927.105 654.049,927.331C654.918,926.859 655.605,926.382 656.094,925.87C656.392,925.559 656.571,925.211 656.571,924.799ZM702.905,923.073C703.122,922.946 703.341,922.829 703.56,922.722C705.243,921.9 707.063,921.482 709.023,921.482C710.853,921.482 712.453,921.891 713.836,922.657C715.233,923.431 716.408,924.517 717.354,925.925C718.222,927.218 718.889,928.771 719.323,930.598C719.717,932.254 719.922,934.101 719.922,936.143C719.922,938.645 719.55,940.825 718.85,942.693C718.107,944.675 717.069,946.311 715.76,947.619C714.45,948.93 712.905,949.918 711.118,950.573C709.435,951.19 707.612,951.506 705.648,951.506C705.06,951.506 704.474,951.485 703.89,951.442L703.89,957.939C703.89,959.538 702.663,960.834 701.148,960.834L697.07,960.834C695.556,960.834 694.328,959.538 694.328,957.939L694.328,924.799C694.328,923.2 695.556,921.904 697.07,921.904L700.703,921.904C701.601,921.904 702.404,922.361 702.905,923.073ZM717.18,936.143C717.18,934.361 717.008,932.748 716.664,931.303C716.32,929.857 715.805,928.623 715.117,927.6C714.43,926.576 713.578,925.783 712.563,925.221C711.547,924.658 710.367,924.377 709.023,924.377C707.477,924.377 706.039,924.701 704.711,925.35C703.383,925.998 702.133,927.127 700.961,928.736L700.703,924.799L697.07,924.799L697.07,957.939L701.148,957.939L701.148,948.096C701.914,948.283 702.668,948.416 703.41,948.494C704.152,948.572 704.898,948.611 705.648,948.611C707.289,948.611 708.813,948.353 710.219,947.838C711.625,947.322 712.844,946.549 713.875,945.518C714.906,944.486 715.715,943.189 716.301,941.627C716.887,940.064 717.18,938.236 717.18,936.143ZM713.008,936.33C713.008,939.33 712.383,941.576 711.133,943.068C709.883,944.56 708.156,945.307 705.953,945.307C705.156,945.307 704.344,945.217 703.516,945.037C702.688,944.857 701.898,944.611 701.148,944.299L701.148,932.885C701.867,931.947 702.543,931.162 703.176,930.529C703.809,929.896 704.41,929.389 704.98,929.006C705.551,928.623 706.102,928.35 706.633,928.185C707.164,928.021 707.688,927.939 708.203,927.939C709.047,927.939 709.773,928.146 710.383,928.56C710.992,928.975 711.492,929.549 711.883,930.283C712.273,931.018 712.559,931.9 712.738,932.932C712.918,933.963 713.008,935.096 713.008,936.33ZM710.266,936.33C710.266,935.286 710.194,934.328 710.042,933.455C709.923,932.774 709.75,932.186 709.492,931.701C709.335,931.405 709.145,931.162 708.899,930.995C708.707,930.864 708.469,930.834 708.203,930.834C707.94,930.834 707.674,930.88 707.403,930.964C707.095,931.059 706.781,931.228 706.451,931.449C706.011,931.745 705.55,932.142 705.061,932.631C704.687,933.005 704.298,933.44 703.89,933.936L703.891,942.161L704.068,942.201C704.708,942.34 705.337,942.412 705.953,942.412C707.27,942.412 708.332,942.042 709.079,941.15C709.966,940.092 710.266,938.457 710.266,936.33ZM611.125,951.225L591.883,951.225C590.369,951.225 589.141,949.929 589.141,948.33L589.141,944.533C589.141,942.934 590.369,941.638 591.883,941.638L597.016,941.638L597.016,926.919L593.676,928.733C593.01,929.094 592.232,929.153 591.524,928.893C590.816,928.634 590.239,928.08 589.928,927.361L588.428,923.892C587.814,922.472 588.376,920.795 589.698,920.099L599.448,914.966C599.828,914.766 600.247,914.662 600.672,914.662L604.281,914.662C605.796,914.662 607.023,915.958 607.023,917.557L607.023,941.638L611.125,941.638C612.639,941.638 613.867,942.934 613.867,944.533L613.867,948.33C613.867,949.929 612.639,951.225 611.125,951.225ZM611.125,948.33L611.125,944.533L604.281,944.533L604.281,917.557L600.672,917.557L590.922,922.689L592.422,926.158L599.758,922.174L599.758,944.533L591.883,944.533L591.883,948.33L611.125,948.33ZM641.218,933.025C641.218,935.632 640.951,938.008 640.429,940.155C639.867,942.469 639.001,944.449 637.858,946.108C636.643,947.87 635.133,949.231 633.331,950.197C631.563,951.144 629.493,951.647 627.109,951.647C625.067,951.647 623.212,951.249 621.539,950.481C619.783,949.674 618.277,948.441 617.031,946.767C615.877,945.215 614.965,943.249 614.34,940.846C613.768,938.646 613.469,936.04 613.469,933.025C613.469,930.416 613.741,928.033 614.272,925.876C614.842,923.56 615.705,921.582 616.835,919.929C618.043,918.162 619.557,916.796 621.374,915.828C623.151,914.881 625.215,914.38 627.578,914.38C629.621,914.38 631.476,914.778 633.148,915.546C634.906,916.354 636.414,917.593 637.661,919.279C638.814,920.838 639.724,922.805 640.347,925.205C640.919,927.405 641.218,930.011 641.218,933.025ZM638.477,933.025C638.477,930.307 638.219,927.955 637.703,925.971C637.188,923.986 636.453,922.35 635.5,921.06C634.547,919.771 633.398,918.818 632.055,918.201C630.711,917.584 629.219,917.275 627.578,917.275C625.688,917.275 624.031,917.654 622.609,918.412C621.188,919.17 620.004,920.24 619.059,921.623C618.113,923.006 617.402,924.666 616.926,926.603C616.449,928.541 616.211,930.682 616.211,933.025C616.211,935.744 616.469,938.096 616.984,940.08C617.5,942.064 618.234,943.697 619.188,944.978C620.141,946.26 621.289,947.209 622.633,947.826C623.977,948.443 625.469,948.752 627.109,948.752C629.016,948.752 630.676,948.373 632.09,947.615C633.504,946.857 634.688,945.787 635.641,944.404C636.594,943.021 637.305,941.365 637.773,939.435C638.242,937.506 638.477,935.369 638.477,933.025ZM620.336,932.885C620.336,930.9 620.5,929.154 620.828,927.646C621.156,926.139 621.625,924.873 622.234,923.85C622.844,922.826 623.582,922.057 624.449,921.541C625.316,921.025 626.281,920.768 627.344,920.768C628.141,920.768 628.859,920.9 629.5,921.166C630.141,921.432 630.711,921.803 631.211,922.279C631.711,922.756 632.141,923.322 632.5,923.978C632.859,924.635 633.156,925.361 633.391,926.158L620.43,935.744C620.383,935.291 620.355,934.822 620.348,934.338C620.34,933.853 620.336,933.369 620.336,932.885ZM629.966,925.156C629.792,924.883 629.596,924.64 629.374,924.428C629.118,924.185 628.825,923.996 628.498,923.861C628.156,923.719 627.769,923.663 627.344,923.663C626.776,923.663 626.258,923.788 625.795,924.064C625.303,924.356 624.901,924.81 624.556,925.39C624.091,926.171 623.751,927.144 623.5,928.295C623.374,928.874 623.277,929.494 623.209,930.154L629.966,925.156ZM634.352,933.166C634.352,935.15 634.188,936.896 633.859,938.404C633.531,939.912 633.063,941.174 632.453,942.189C631.844,943.205 631.105,943.971 630.238,944.486C629.371,945.002 628.406,945.26 627.344,945.26C626.516,945.26 625.777,945.123 625.129,944.85C624.48,944.576 623.902,944.193 623.395,943.701C622.887,943.209 622.453,942.619 622.094,941.932C621.734,941.244 621.438,940.494 621.203,939.682L634.164,930.049C634.211,930.549 634.254,931.06 634.293,931.584C634.332,932.107 634.352,932.635 634.352,933.166ZM624.589,940.705C624.778,941.034 624.996,941.323 625.249,941.568C625.511,941.823 625.811,942.02 626.146,942.161C626.496,942.309 626.897,942.365 627.344,942.365C627.911,942.365 628.43,942.239 628.893,941.964C629.386,941.67 629.79,941.218 630.137,940.64C630.6,939.868 630.938,938.902 631.187,937.756C631.334,937.079 631.442,936.347 631.511,935.561L624.589,940.705Z" style="fill:rgb(162,162,162);"/>
            <text x="719.711px" y="948.33px" style="font-family:'Consolas', monospace;font-size:48px;">&gt;</text>
            <path d="M722.697,922.935L725.228,920.334C726.215,919.319 727.761,919.235 728.841,920.137L744.591,933.286C745.249,933.835 745.632,934.671 745.632,935.557C745.632,936.442 745.249,937.278 744.591,937.828L728.841,950.976C727.765,951.875 726.225,951.795 725.237,950.789L722.706,948.21C722.134,947.628 721.83,946.813 721.871,945.975C721.913,945.138 722.296,944.36 722.923,943.844L732.935,935.596L722.916,927.286C722.294,926.771 721.913,925.997 721.871,925.163C721.829,924.33 722.13,923.517 722.697,922.935ZM724.609,925.01L737.383,935.603L724.609,946.127L727.141,948.705L742.891,935.557L727.141,922.408L724.609,925.01Z" style="fill:rgb(175,175,175);"/>
            <g transform="matrix(48,0,0,48,746.102,1004.53)">
            </g>
            <text x="139.117px" y="1004.53px" style="font-family:'Consolas', monospace;font-size:48px;">Dymaxion Gallery Camera</text>
            <path d="M164.773,979.397C165.281,978.591 166.137,978.107 167.055,978.107L171.695,978.107C172.813,978.107 173.819,978.823 174.238,979.918L178.863,992.008L183.144,979.983C183.546,978.854 184.569,978.107 185.711,978.107L190.188,978.107C190.908,978.107 191.591,978.406 192.098,978.925C192.591,978.419 193.265,978.107 194.008,978.107L197.125,978.107C197.775,978.107 198.374,978.346 198.845,978.747C199.228,978.496 199.624,978.292 200.031,978.134C200.777,977.843 201.604,977.685 202.516,977.685C204.468,977.685 205.971,978.337 207.084,979.487C207.654,978.967 208.272,978.56 208.934,978.259C209.747,977.891 210.683,977.685 211.75,977.685C213.738,977.685 215.303,978.371 216.496,979.595C217.959,981.097 218.922,983.648 218.922,987.4L218.922,995.778C219.409,993.572 220.587,991.769 222.441,990.359C224.567,988.744 227.679,987.81 231.836,987.81L233.807,987.81C233.744,987.682 233.661,987.567 233.553,987.466C233.069,987.012 232.291,986.944 231.297,986.944C230.166,986.944 229.053,987.07 227.955,987.323C226.79,987.591 225.585,987.974 224.342,988.469C223.499,988.804 222.555,988.681 221.815,988.14C221.075,987.6 220.633,986.71 220.633,985.76L220.633,982.08C220.633,980.844 221.376,979.745 222.482,979.343C223.052,979.136 223.686,978.932 224.386,978.734C225.082,978.536 225.817,978.359 226.591,978.204C227.365,978.05 228.173,977.925 229.015,977.83C229.876,977.733 230.746,977.685 231.625,977.685C233.302,977.685 234.812,977.878 236.157,978.247C237.688,978.666 238.975,979.324 240.035,980.183C241.179,981.113 242.059,982.278 242.671,983.683C243.242,984.996 243.554,986.536 243.554,988.314L243.554,1004.53C243.554,1006.13 242.327,1007.43 240.813,1007.43L237.156,1007.43C236.312,1007.43 235.554,1007.02 235.05,1006.39C234.763,1006.54 234.475,1006.67 234.186,1006.8C232.54,1007.5 230.812,1007.85 229,1007.85C227.309,1007.85 225.868,1007.61 224.668,1007.18C223.317,1006.69 222.215,1006 221.339,1005.15C220.4,1004.23 219.713,1003.15 219.273,1001.92C219.132,1001.52 219.014,1001.11 218.922,1000.69L218.922,1004.53C218.922,1006.13 217.694,1007.43 216.18,1007.43L212.43,1007.43C210.915,1007.43 209.688,1006.13 209.688,1004.53C209.688,1006.13 208.46,1007.43 206.945,1007.43L203.219,1007.43C201.789,1007.43 200.615,1006.27 200.488,1004.8C200.361,1006.27 199.187,1007.43 197.758,1007.43L194.008,1007.43C192.494,1007.43 191.266,1006.13 191.266,1004.53L191.266,985.93L184.716,1003.13L184.71,1003.14C183.822,1005.44 182.901,1007.42 181.954,1009.07C180.916,1010.89 179.773,1012.38 178.542,1013.54C177.219,1014.8 175.764,1015.72 174.183,1016.31C172.659,1016.88 170.956,1017.18 169.07,1017.18C168.619,1017.18 168.21,1017.17 167.845,1017.15C167.492,1017.13 167.104,1017.11 166.683,1017.08C165.254,1016.96 164.149,1015.7 164.149,1014.19L164.149,1010.49C164.149,1009.65 164.488,1008.86 165.08,1008.31C165.672,1007.76 166.46,1007.51 167.242,1007.62C167.554,1007.66 167.895,1007.7 168.264,1007.73C168.592,1007.76 168.939,1007.78 169.305,1007.78C169.756,1007.78 170.178,1007.72 170.568,1007.59C170.905,1007.47 171.22,1007.28 171.521,1007.03C171.926,1006.68 172.307,1006.23 172.679,1005.68C172.935,1005.31 173.184,1004.88 173.43,1004.42L166.488,987.033C166.522,987.63 166.539,988.244 166.539,988.877C166.539,990.522 166.41,992.098 166.156,993.603C165.888,995.196 165.454,996.677 164.861,998.048C164.247,999.469 163.449,1000.76 162.47,1001.92C161.474,1003.1 160.259,1004.12 158.814,1004.96C157.452,1005.75 155.872,1006.37 154.068,1006.81C152.359,1007.22 150.415,1007.43 148.234,1007.43L141.672,1007.43C140.158,1007.43 138.93,1006.13 138.93,1004.53L138.93,973.9C138.93,972.301 140.158,971.005 141.672,971.005L149.57,971.005C155.236,971.005 159.413,972.619 162.2,975.536C163.233,976.617 164.096,977.902 164.773,979.397ZM212.43,1004.53L216.18,1004.53L216.18,987.4C216.18,982.853 214.703,980.58 211.75,980.58C211.094,980.58 210.516,980.693 210.016,980.92C209.516,981.146 209.059,981.475 208.645,981.904C208.23,982.334 207.844,982.865 207.484,983.498C207.125,984.131 206.758,984.853 206.383,985.666C206.383,983.932 206.055,982.65 205.398,981.822C204.742,980.994 203.781,980.58 202.516,980.58C201.953,980.58 201.441,980.67 200.98,980.85C200.52,981.029 200.086,981.31 199.68,981.693C199.273,982.076 198.879,982.58 198.496,983.205C198.113,983.83 197.719,984.588 197.313,985.478L197.125,981.002L194.008,981.002L194.008,1004.53L197.758,1004.53L197.758,989.416C198.273,988.322 198.719,987.424 199.094,986.721C199.469,986.018 199.809,985.463 200.113,985.057C200.418,984.65 200.695,984.369 200.945,984.213C201.195,984.057 201.461,983.978 201.742,983.978C202.008,983.978 202.234,984.033 202.422,984.143C202.609,984.252 202.762,984.455 202.879,984.752C202.996,985.049 203.082,985.463 203.137,985.994C203.191,986.525 203.219,987.221 203.219,988.08L203.219,1004.53L206.945,1004.53L206.945,989.416C207.445,988.4 207.879,987.545 208.246,986.85C208.613,986.154 208.949,985.596 209.254,985.174C209.559,984.752 209.844,984.447 210.109,984.26C210.375,984.072 210.664,983.978 210.977,983.978C211.242,983.978 211.465,984.033 211.645,984.143C211.824,984.252 211.973,984.443 212.09,984.717C212.207,984.99 212.293,985.361 212.348,985.83C212.402,986.299 212.43,986.9 212.43,987.635L212.43,1004.53ZM237.156,1004.53L240.813,1004.53L240.813,988.314C240.813,987.002 240.602,985.861 240.18,984.893C239.758,983.924 239.152,983.119 238.363,982.478C237.574,981.838 236.609,981.361 235.469,981.049C234.328,980.736 233.047,980.58 231.625,980.58C230.844,980.58 230.07,980.623 229.305,980.709C228.539,980.795 227.805,980.908 227.102,981.049C226.398,981.189 225.73,981.35 225.098,981.529C224.465,981.709 223.891,981.893 223.375,982.08L223.375,985.76C224.75,985.213 226.082,984.791 227.371,984.494C228.66,984.197 229.969,984.049 231.297,984.049C233.125,984.049 234.484,984.467 235.375,985.303C236.266,986.139 236.711,987.252 236.711,988.643L236.711,990.705L231.836,990.705C228.398,990.705 225.801,991.373 224.043,992.709C222.285,994.045 221.406,995.893 221.406,998.252C221.406,999.205 221.551,1000.09 221.84,1000.9C222.129,1001.71 222.582,1002.42 223.199,1003.02C223.816,1003.62 224.602,1004.1 225.555,1004.44C226.508,1004.78 227.656,1004.96 229,1004.96C230.453,1004.96 231.84,1004.67 233.16,1004.11C234.48,1003.55 235.781,1002.63 237.063,1001.37L237.156,1004.53ZM236.711,993.822L236.711,997.994C235.367,999.228 234.09,1000.13 232.879,1000.7C231.668,1001.27 230.594,1001.56 229.656,1001.56C228.938,1001.56 228.328,1001.46 227.828,1001.27C227.328,1001.09 226.922,1000.83 226.609,1000.51C226.297,1000.19 226.07,999.826 225.93,999.412C225.789,998.998 225.719,998.564 225.719,998.111C225.719,997.455 225.832,996.865 226.059,996.342C226.285,995.818 226.633,995.369 227.102,994.994C227.57,994.619 228.172,994.33 228.906,994.127C229.641,993.924 230.516,993.822 231.531,993.822L236.711,993.822ZM233.854,996.717L231.531,996.717C230.785,996.717 230.141,996.778 229.601,996.927C229.262,997.021 228.974,997.129 228.757,997.302C228.67,997.372 228.595,997.447 228.552,997.545C228.48,997.712 228.461,997.902 228.461,998.111C228.461,998.224 228.476,998.332 228.511,998.435C228.512,998.438 228.517,998.434 228.519,998.436C228.574,998.493 228.658,998.514 228.746,998.547C228.994,998.64 229.3,998.662 229.656,998.662C230.272,998.662 230.967,998.432 231.762,998.057C232.437,997.739 233.132,997.29 233.854,996.717ZM190.188,981.002L185.711,981.002L180.203,996.471L178.844,1000.22L177.648,996.564L171.695,981.002L167.055,981.002L176.453,1004.53C175.953,1005.64 175.438,1006.59 174.906,1007.37C174.375,1008.15 173.82,1008.79 173.242,1009.28C172.664,1009.77 172.051,1010.13 171.402,1010.35C170.754,1010.56 170.055,1010.67 169.305,1010.67C168.852,1010.67 168.422,1010.65 168.016,1010.62C167.609,1010.58 167.234,1010.53 166.891,1010.49L166.891,1014.19C167.281,1014.22 167.641,1014.24 167.969,1014.26C168.297,1014.27 168.664,1014.28 169.07,1014.28C170.617,1014.28 172.016,1014.05 173.266,1013.58C174.516,1013.11 175.664,1012.38 176.711,1011.39C177.758,1010.4 178.723,1009.13 179.605,1007.58C180.488,1006.03 181.344,1004.19 182.172,1002.05L190.188,981.002ZM163.797,988.877C163.797,983.814 162.621,980.053 160.27,977.592C157.918,975.131 154.352,973.9 149.57,973.9L141.672,973.9L141.672,1004.53L148.234,1004.53C150.188,1004.53 151.93,1004.35 153.461,1003.98C154.992,1003.62 156.336,1003.1 157.492,1002.42C158.648,1001.75 159.625,1000.94 160.422,999.998C161.219,999.053 161.867,998.002 162.367,996.846C162.867,995.689 163.23,994.439 163.457,993.096C163.684,991.752 163.797,990.346 163.797,988.877ZM159.414,989.182C159.414,997.01 155.93,1000.92 148.961,1000.92L145.844,1000.92L145.844,977.416L149.43,977.416C151.117,977.416 152.586,977.623 153.836,978.037C155.086,978.451 156.125,979.119 156.953,980.041C157.781,980.963 158.398,982.174 158.805,983.674C159.211,985.174 159.414,987.01 159.414,989.182ZM156.672,989.182C156.672,987.324 156.516,985.752 156.169,984.47C155.898,983.47 155.516,982.647 154.964,982.033C154.448,981.459 153.793,981.057 153.015,980.799C151.999,980.463 150.802,980.311 149.43,980.311L148.586,980.311L148.586,998.029L148.961,998.029C151.536,998.029 153.515,997.452 154.803,996.005C156.144,994.499 156.672,992.194 156.672,989.182ZM272.36,1004.16L272.36,1001.13C272.36,999.536 273.587,998.24 275.102,998.24L280.094,998.24L280.094,987.272L275.875,987.272C274.361,987.272 273.133,985.976 273.133,984.377L273.133,981.002C273.133,979.403 274.361,978.107 275.875,978.107L279.565,978.107C279.256,977.697 278.999,977.249 278.794,976.761C278.475,976.002 278.313,975.197 278.313,974.346C278.313,973.46 278.482,972.646 278.803,971.898C279.109,971.185 279.53,970.55 280.069,969.997C280.613,969.438 281.251,969 281.987,968.691C282.69,968.395 283.449,968.24 284.266,968.24C285.082,968.24 285.841,968.395 286.545,968.691C287.28,969 287.918,969.438 288.463,969.997C289.001,970.55 289.423,971.185 289.728,971.898C290.049,972.646 290.218,973.46 290.218,974.346C290.218,975.197 290.056,976.002 289.737,976.761C289.442,977.464 289.039,978.085 288.528,978.626C289.238,979.149 289.703,980.018 289.703,981.002L289.703,998.24L293.969,998.24C295.483,998.24 296.711,999.536 296.711,1001.13L296.711,1004.53C296.711,1006.13 295.483,1007.43 293.969,1007.43L275.102,1007.43C273.672,1007.43 272.498,1006.27 272.371,1004.8C272.342,1005.13 272.26,1005.45 272.122,1005.76C271.671,1006.78 270.704,1007.43 269.641,1007.43L264.227,1007.43C263.362,1007.43 262.548,1007 262.03,1006.27L257.887,1000.41L253.799,1006.25C253.282,1006.99 252.464,1007.43 251.594,1007.43L246.32,1007.43C245.262,1007.43 244.298,1006.78 243.844,1005.77C243.39,1004.77 243.526,1003.57 244.195,1002.7L251.928,992.685L244.584,982.787C243.937,981.915 243.818,980.73 244.277,979.735C244.736,978.739 245.693,978.107 246.742,978.107L251.969,978.107C252.849,978.107 253.676,978.553 254.192,979.307L258.135,985.073L261.989,979.328C262.503,978.562 263.337,978.107 264.227,978.107L269.266,978.107C270.317,978.107 271.275,978.741 271.733,979.74C272.191,980.738 272.069,981.925 271.417,982.796L263.957,992.769L271.751,1002.68C272.089,1003.11 272.294,1003.63 272.36,1004.16ZM284.266,971.135C283.813,971.135 283.391,971.217 283,971.381C282.609,971.545 282.27,971.775 281.98,972.072C281.691,972.369 281.465,972.709 281.301,973.092C281.137,973.475 281.055,973.893 281.055,974.346C281.055,974.783 281.137,975.197 281.301,975.588C281.465,975.978 281.691,976.322 281.98,976.619C282.27,976.916 282.609,977.146 283,977.31C283.391,977.475 283.813,977.557 284.266,977.557C284.719,977.557 285.141,977.475 285.531,977.31C285.922,977.146 286.262,976.916 286.551,976.619C286.84,976.322 287.066,975.978 287.23,975.588C287.395,975.197 287.477,974.783 287.477,974.346C287.477,973.893 287.395,973.475 287.23,973.092C287.066,972.709 286.84,972.369 286.551,972.072C286.262,971.775 285.922,971.545 285.531,971.381C285.141,971.217 284.719,971.135 284.266,971.135ZM282.836,984.377L282.836,1001.13L275.102,1001.13L275.102,1004.53L293.969,1004.53L293.969,1001.13L286.961,1001.13L286.961,981.002L275.875,981.002L275.875,984.377L282.836,984.377ZM269.641,1004.53L260.43,992.814L269.266,981.002L264.227,981.002L258.156,990.049L251.969,981.002L246.742,981.002L255.438,992.721L246.32,1004.53L251.594,1004.53L257.875,995.557L264.227,1004.53L269.641,1004.53ZM333.414,979.246C333.626,979.116 333.836,978.996 334.044,978.885C334.892,978.434 335.756,978.121 336.636,977.938C337.446,977.77 338.286,977.685 339.156,977.685C342.489,977.685 344.963,978.8 346.673,980.767C348.301,982.641 349.257,985.414 349.257,989.182L349.257,1004.53C349.257,1006.13 348.03,1007.43 346.516,1007.43L342.438,1007.43C340.923,1007.43 339.696,1006.13 339.696,1004.53L339.696,989.51C339.696,988.511 339.661,987.737 339.288,987.259C339.084,986.996 338.74,986.991 338.336,986.991C338.101,986.991 337.871,987.025 337.647,987.095C337.411,987.169 337.171,987.31 336.916,987.492C336.519,987.775 336.093,988.162 335.63,988.644C335.258,989.03 334.856,989.482 334.422,990L334.422,1004.53C334.422,1006.13 333.194,1007.43 331.68,1007.43L327.602,1007.43C326.087,1007.43 324.86,1006.13 324.86,1004.53L324.86,981.002C324.86,979.403 326.087,978.107 327.602,978.107L331.234,978.107C332.121,978.107 332.912,978.552 333.414,979.246ZM327.602,981.002L327.602,1004.53L331.68,1004.53L331.68,988.924C332.43,987.986 333.105,987.205 333.707,986.58C334.309,985.955 334.867,985.459 335.383,985.092C335.898,984.725 336.395,984.467 336.871,984.318C337.348,984.17 337.836,984.096 338.336,984.096C339.695,984.096 340.719,984.537 341.406,985.42C342.094,986.303 342.438,987.666 342.438,989.51L342.438,1004.53L346.516,1004.53L346.516,989.182C346.516,986.307 345.895,984.154 344.652,982.725C343.41,981.295 341.578,980.58 339.156,980.58C338.469,980.58 337.805,980.646 337.164,980.779C336.523,980.912 335.895,981.143 335.277,981.471C334.66,981.799 334.031,982.232 333.391,982.771C332.75,983.31 332.086,983.986 331.398,984.799L331.234,981.002L327.602,981.002ZM393.485,998.304L393.485,993.788L389.969,993.788C388.454,993.788 387.227,992.491 387.227,990.893L387.227,987.447C387.227,985.848 388.454,984.552 389.969,984.552L400.352,984.552C401.866,984.552 403.093,985.848 403.093,987.447L403.093,1003.1C403.093,1004.25 402.45,1005.29 401.454,1005.75C400.723,1006.09 399.952,1006.4 399.141,1006.66C398.339,1006.93 397.519,1007.15 396.681,1007.33C395.851,1007.5 395.026,1007.63 394.205,1007.72C393.376,1007.81 392.573,1007.85 391.797,1007.85C389.35,1007.85 387.148,1007.45 385.185,1006.69C383.104,1005.87 381.337,1004.66 379.876,1003.06C378.434,1001.49 377.312,999.536 376.539,997.187C375.816,994.991 375.438,992.449 375.438,989.557C375.438,986.664 375.857,984.075 376.665,981.784C377.509,979.393 378.705,977.374 380.233,975.714C381.78,974.035 383.636,972.749 385.809,971.866C387.896,971.019 390.195,970.583 392.711,970.583C394.26,970.583 395.735,970.722 397.135,970.995C398.588,971.278 399.983,971.731 401.318,972.353C402.311,972.816 402.953,973.855 402.953,975.002L402.953,979.15C402.953,980.156 402.458,981.09 401.647,981.617C400.835,982.143 399.823,982.188 398.973,981.734C398.007,981.217 397.014,980.816 395.994,980.531C395.006,980.255 393.926,980.123 392.758,980.123C391.542,980.123 390.457,980.32 389.511,980.753C388.635,981.153 387.893,981.713 387.293,982.443C386.654,983.22 386.176,984.162 385.836,985.255C385.46,986.467 385.281,987.808 385.281,989.275C385.281,990.872 385.431,992.304 385.751,993.568C386.017,994.623 386.418,995.525 386.984,996.258C387.5,996.926 388.168,997.428 388.973,997.783C389.921,998.2 391.06,998.38 392.383,998.38C392.607,998.38 392.849,998.368 393.109,998.344C393.234,998.333 393.359,998.319 393.485,998.304ZM400.211,979.15L400.211,975.002C399.07,974.471 397.879,974.084 396.637,973.842C395.395,973.6 394.086,973.478 392.711,973.478C390.555,973.478 388.582,973.842 386.793,974.568C385.004,975.295 383.473,976.35 382.199,977.732C380.926,979.115 379.938,980.803 379.234,982.795C378.531,984.787 378.18,987.041 378.18,989.557C378.18,992.088 378.496,994.314 379.129,996.236C379.762,998.158 380.668,999.764 381.848,1001.05C383.027,1002.34 384.457,1003.31 386.137,1003.97C387.816,1004.63 389.703,1004.96 391.797,1004.96C392.484,1004.96 393.195,1004.92 393.93,1004.84C394.664,1004.76 395.402,1004.64 396.145,1004.49C396.887,1004.33 397.613,1004.13 398.324,1003.9C399.035,1003.67 399.711,1003.4 400.352,1003.1L400.352,987.447L389.969,987.447L389.969,990.893L396.227,990.893L396.227,1000.64C395.977,1000.74 395.691,1000.82 395.371,1000.9C395.051,1000.98 394.719,1001.05 394.375,1001.1C394.031,1001.15 393.688,1001.2 393.344,1001.23C393,1001.26 392.68,1001.27 392.383,1001.27C390.648,1001.27 389.16,1001 387.918,1000.46C386.676,999.908 385.656,999.119 384.859,998.088C384.063,997.057 383.477,995.799 383.102,994.314C382.727,992.83 382.539,991.15 382.539,989.275C382.539,987.478 382.77,985.838 383.23,984.353C383.691,982.869 384.355,981.6 385.223,980.545C386.09,979.49 387.156,978.674 388.422,978.096C389.688,977.518 391.133,977.228 392.758,977.228C394.18,977.228 395.492,977.396 396.695,977.732C397.898,978.068 399.07,978.541 400.211,979.15ZM418.541,987.81C418.478,987.682 418.395,987.567 418.288,987.466C417.803,987.012 417.026,986.944 416.031,986.944C414.901,986.944 413.787,987.07 412.69,987.323C411.524,987.591 410.32,987.974 409.076,988.469C408.234,988.804 407.289,988.681 406.549,988.14C405.809,987.6 405.368,986.71 405.368,985.76L405.368,982.08C405.368,980.844 406.11,979.745 407.217,979.343C407.786,979.136 408.421,978.932 409.12,978.734C409.817,978.536 410.552,978.359 411.326,978.204C412.099,978.05 412.907,977.925 413.749,977.83C414.61,977.733 415.481,977.685 416.359,977.685C418.036,977.685 419.547,977.878 420.892,978.247C422.423,978.666 423.71,979.324 424.769,980.183C425.913,981.113 426.793,982.278 427.405,983.683C427.977,984.996 428.289,986.536 428.289,988.314L428.289,1004.53C428.289,1006.13 427.061,1007.43 425.547,1007.43L421.891,1007.43C421.046,1007.43 420.288,1007.02 419.785,1006.39C419.497,1006.54 419.209,1006.67 418.921,1006.8C417.274,1007.5 415.546,1007.85 413.734,1007.85C412.044,1007.85 410.602,1007.61 409.403,1007.18C408.051,1006.69 406.949,1006 406.074,1005.15C405.134,1004.23 404.447,1003.15 404.007,1001.92C403.607,1000.79 403.399,999.572 403.399,998.252C403.399,994.888 404.67,992.264 407.176,990.359C409.301,988.744 412.413,987.81 416.57,987.81L418.541,987.81ZM421.891,1004.53L425.547,1004.53L425.547,988.314C425.547,987.002 425.336,985.861 424.914,984.893C424.492,983.924 423.887,983.119 423.098,982.478C422.309,981.838 421.344,981.361 420.203,981.049C419.063,980.736 417.781,980.58 416.359,980.58C415.578,980.58 414.805,980.623 414.039,980.709C413.273,980.795 412.539,980.908 411.836,981.049C411.133,981.189 410.465,981.35 409.832,981.529C409.199,981.709 408.625,981.893 408.109,982.08L408.109,985.76C409.484,985.213 410.816,984.791 412.105,984.494C413.395,984.197 414.703,984.049 416.031,984.049C417.859,984.049 419.219,984.467 420.109,985.303C421,986.139 421.445,987.252 421.445,988.643L421.445,990.705L416.57,990.705C413.133,990.705 410.535,991.373 408.777,992.709C407.02,994.045 406.141,995.893 406.141,998.252C406.141,999.205 406.285,1000.09 406.574,1000.9C406.863,1001.71 407.316,1002.42 407.934,1003.02C408.551,1003.62 409.336,1004.1 410.289,1004.44C411.242,1004.78 412.391,1004.96 413.734,1004.96C415.188,1004.96 416.574,1004.67 417.895,1004.11C419.215,1003.55 420.516,1002.63 421.797,1001.37L421.891,1004.53ZM421.445,993.822L421.445,997.994C420.102,999.228 418.824,1000.13 417.613,1000.7C416.402,1001.27 415.328,1001.56 414.391,1001.56C413.672,1001.56 413.063,1001.46 412.563,1001.27C412.063,1001.09 411.656,1000.83 411.344,1000.51C411.031,1000.19 410.805,999.826 410.664,999.412C410.523,998.998 410.453,998.564 410.453,998.111C410.453,997.455 410.566,996.865 410.793,996.342C411.02,995.818 411.367,995.369 411.836,994.994C412.305,994.619 412.906,994.33 413.641,994.127C414.375,993.924 415.25,993.822 416.266,993.822L421.445,993.822ZM418.588,996.717L416.266,996.717C415.519,996.717 414.875,996.778 414.335,996.927C413.997,997.021 413.708,997.129 413.492,997.302C413.404,997.372 413.329,997.447 413.287,997.545C413.215,997.712 413.195,997.902 413.195,998.111C413.195,998.224 413.21,998.332 413.245,998.435C413.246,998.438 413.251,998.434 413.254,998.436C413.309,998.493 413.392,998.514 413.48,998.547C413.728,998.64 414.034,998.662 414.391,998.662C415.006,998.662 415.701,998.432 416.496,998.057C417.171,997.739 417.866,997.29 418.588,996.717ZM519.37,979.504C519.573,979.375 519.776,979.254 519.978,979.142C521.75,978.159 523.541,977.685 525.344,977.685C528.724,977.685 531.24,978.895 532.985,981.083C534.6,983.11 535.494,986.078 535.373,990.071C535.326,991.633 534.113,992.873 532.633,992.873L528.508,992.873C527.769,992.873 527.062,992.559 526.546,992.001C526.03,991.443 525.749,990.689 525.767,989.909C525.795,988.682 525.784,987.76 525.398,987.207C525.259,987.008 525.025,986.991 524.758,986.991C524.498,986.991 524.237,987.042 523.973,987.135C523.642,987.251 523.308,987.448 522.959,987.704C522.48,988.055 521.976,988.508 521.44,989.057C521.034,989.472 520.609,989.948 520.164,990.483L520.164,1004.53C520.164,1006.13 518.936,1007.43 517.422,1007.43L513.297,1007.43C511.783,1007.43 510.555,1006.13 510.555,1004.53L510.555,981.002C510.555,979.403 511.783,978.107 513.297,978.107L517.023,978.107C518.016,978.107 518.889,978.665 519.37,979.504ZM513.297,981.002L513.297,1004.53L517.422,1004.53L517.422,989.416C518.172,988.463 518.875,987.65 519.531,986.978C520.188,986.307 520.809,985.756 521.395,985.326C521.98,984.896 522.551,984.584 523.105,984.389C523.66,984.193 524.211,984.096 524.758,984.096C526.008,984.096 526.957,984.56 527.605,985.49C528.254,986.42 528.555,987.916 528.508,989.978L532.633,989.978C532.727,986.869 532.145,984.525 530.887,982.947C529.629,981.369 527.781,980.58 525.344,980.58C523.969,980.58 522.605,980.955 521.254,981.705C519.902,982.455 518.531,983.666 517.141,985.338L517.023,981.002L513.297,981.002ZM548.331,992.008L552.613,979.983C553.015,978.854 554.038,978.107 555.18,978.107L559.656,978.107C560.567,978.107 561.418,978.584 561.928,979.381C562.438,980.178 562.54,981.19 562.2,982.082L554.185,1003.13L554.179,1003.14C553.291,1005.44 552.37,1007.42 551.423,1009.07C550.385,1010.89 549.242,1012.38 548.011,1013.54C546.688,1014.8 545.232,1015.72 543.652,1016.31C542.128,1016.88 540.425,1017.18 538.539,1017.18C538.087,1017.18 537.679,1017.17 537.314,1017.15C536.96,1017.13 536.573,1017.11 536.152,1017.08C534.722,1016.96 533.618,1015.7 533.618,1014.19L533.618,1010.49C533.618,1009.65 533.957,1008.86 534.549,1008.31C535.141,1007.76 535.929,1007.51 536.711,1007.62C537.023,1007.66 537.364,1007.7 537.733,1007.73C538.061,1007.76 538.408,1007.78 538.773,1007.78C539.225,1007.78 539.646,1007.72 540.037,1007.59C540.374,1007.47 540.689,1007.28 540.99,1007.03C541.395,1006.68 541.776,1006.23 542.148,1005.68C542.403,1005.31 542.653,1004.88 542.899,1004.42L533.997,982.127C533.64,981.233 533.731,980.21 534.239,979.401C534.747,978.593 535.605,978.107 536.523,978.107L541.164,978.107C542.282,978.107 543.288,978.823 543.706,979.918L548.331,992.008ZM559.656,981.002L555.18,981.002L549.672,996.471L548.313,1000.22L547.117,996.564L541.164,981.002L536.523,981.002L545.922,1004.53C545.422,1005.64 544.906,1006.59 544.375,1007.37C543.844,1008.15 543.289,1008.79 542.711,1009.28C542.133,1009.77 541.52,1010.13 540.871,1010.35C540.223,1010.56 539.523,1010.67 538.773,1010.67C538.32,1010.67 537.891,1010.65 537.484,1010.62C537.078,1010.58 536.703,1010.53 536.359,1010.49L536.359,1014.19C536.75,1014.22 537.109,1014.24 537.438,1014.26C537.766,1014.27 538.133,1014.28 538.539,1014.28C540.086,1014.28 541.484,1014.05 542.734,1013.58C543.984,1013.11 545.133,1012.38 546.18,1011.39C547.227,1010.4 548.191,1009.13 549.074,1007.58C549.957,1006.03 550.813,1004.19 551.641,1002.05L559.656,981.002ZM629.666,987.81C629.603,987.682 629.52,987.567 629.413,987.466C628.928,987.012 628.151,986.944 627.156,986.944C626.026,986.944 624.912,987.07 623.815,987.323C622.649,987.591 621.445,987.974 620.201,988.469C619.359,988.804 618.414,988.681 617.674,988.14C616.934,987.6 616.493,986.71 616.493,985.76L616.493,982.08C616.493,980.844 617.235,979.745 618.342,979.343C618.911,979.136 619.546,978.932 620.245,978.734C620.942,978.536 621.677,978.359 622.451,978.204C623.224,978.05 624.032,977.925 624.874,977.83C625.735,977.733 626.606,977.685 627.484,977.685C629.161,977.685 630.672,977.878 632.017,978.247C633.548,978.666 634.835,979.324 635.894,980.183C637.038,981.113 637.918,982.278 638.53,983.683C639.102,984.996 639.414,986.536 639.414,988.314L639.414,1004.53C639.414,1006.13 638.186,1007.43 636.672,1007.43L633.016,1007.43C632.171,1007.43 631.413,1007.02 630.91,1006.39C630.622,1006.54 630.334,1006.67 630.046,1006.8C628.399,1007.5 626.671,1007.85 624.859,1007.85C623.169,1007.85 621.727,1007.61 620.528,1007.18C619.176,1006.69 618.074,1006 617.199,1005.15C616.259,1004.23 615.572,1003.15 615.132,1001.92C614.732,1000.79 614.524,999.572 614.524,998.252C614.524,994.888 615.795,992.264 618.301,990.359C620.426,988.744 623.538,987.81 627.695,987.81L629.666,987.81ZM633.016,1004.53L636.672,1004.53L636.672,988.314C636.672,987.002 636.461,985.861 636.039,984.893C635.617,983.924 635.012,983.119 634.223,982.478C633.434,981.838 632.469,981.361 631.328,981.049C630.188,980.736 628.906,980.58 627.484,980.58C626.703,980.58 625.93,980.623 625.164,980.709C624.398,980.795 623.664,980.908 622.961,981.049C622.258,981.189 621.59,981.35 620.957,981.529C620.324,981.709 619.75,981.893 619.234,982.08L619.234,985.76C620.609,985.213 621.941,984.791 623.23,984.494C624.52,984.197 625.828,984.049 627.156,984.049C628.984,984.049 630.344,984.467 631.234,985.303C632.125,986.139 632.57,987.252 632.57,988.643L632.57,990.705L627.695,990.705C624.258,990.705 621.66,991.373 619.902,992.709C618.145,994.045 617.266,995.893 617.266,998.252C617.266,999.205 617.41,1000.09 617.699,1000.9C617.988,1001.71 618.441,1002.42 619.059,1003.02C619.676,1003.62 620.461,1004.1 621.414,1004.44C622.367,1004.78 623.516,1004.96 624.859,1004.96C626.313,1004.96 627.699,1004.67 629.02,1004.11C630.34,1003.55 631.641,1002.63 632.922,1001.37L633.016,1004.53ZM632.57,993.822L632.57,997.994C631.227,999.228 629.949,1000.13 628.738,1000.7C627.527,1001.27 626.453,1001.56 625.516,1001.56C624.797,1001.56 624.188,1001.46 623.688,1001.27C623.188,1001.09 622.781,1000.83 622.469,1000.51C622.156,1000.19 621.93,999.826 621.789,999.412C621.648,998.998 621.578,998.564 621.578,998.111C621.578,997.455 621.691,996.865 621.918,996.342C622.145,995.818 622.492,995.369 622.961,994.994C623.43,994.619 624.031,994.33 624.766,994.127C625.5,993.924 626.375,993.822 627.391,993.822L632.57,993.822ZM629.713,996.717L627.391,996.717C626.644,996.717 626,996.778 625.46,996.927C625.122,997.021 624.833,997.129 624.617,997.302C624.529,997.372 624.454,997.447 624.412,997.545C624.34,997.712 624.32,997.902 624.32,998.111C624.32,998.224 624.335,998.332 624.37,998.435C624.371,998.438 624.376,998.434 624.379,998.436C624.434,998.493 624.517,998.514 624.605,998.547C624.853,998.64 625.159,998.662 625.516,998.662C626.131,998.662 626.826,998.432 627.621,998.057C628.296,997.739 628.991,997.29 629.713,996.717ZM647.486,978.747C647.869,978.496 648.264,978.292 648.671,978.134C649.418,977.843 650.245,977.685 651.156,977.685C653.109,977.685 654.611,978.337 655.725,979.487C656.294,978.967 656.912,978.56 657.575,978.259C658.388,977.891 659.324,977.685 660.391,977.685C662.379,977.685 663.944,978.371 665.137,979.595C666.599,981.097 667.562,983.648 667.562,987.4L667.562,987.953C667.633,987.693 667.709,987.436 667.791,987.181C668.386,985.34 669.258,983.725 670.398,982.332C671.561,980.91 672.984,979.777 674.674,978.942C676.344,978.117 678.237,977.685 680.359,977.685C682.373,977.685 684.153,978.02 685.706,978.653C687.362,979.327 688.752,980.293 689.887,981.531C691.024,982.769 691.893,984.268 692.476,986.039C693.015,987.675 693.297,989.502 693.297,991.525C693.297,992.152 693.288,992.677 693.271,993.101C693.253,993.546 693.226,993.965 693.19,994.357C693.055,995.842 691.874,996.975 690.461,996.975L677.373,996.975C677.496,997.157 677.636,997.326 677.797,997.48C678.706,998.352 680.053,998.662 681.766,998.662C682.384,998.662 683.003,998.637 683.622,998.588C684.251,998.538 684.858,998.47 685.444,998.384C686.038,998.297 686.607,998.2 687.15,998.091C687.665,997.988 688.143,997.875 688.583,997.751C689.406,997.52 690.284,997.705 690.96,998.253C691.635,998.801 692.031,999.649 692.031,1000.55L692.031,1003.9C692.031,1005.21 691.196,1006.36 689.996,1006.7C688.784,1007.04 687.415,1007.32 685.887,1007.53C684.373,1007.74 682.804,1007.85 681.18,1007.85C678.806,1007.85 676.767,1007.51 675.056,1006.86C673.162,1006.15 671.621,1005.1 670.409,1003.74C669.204,1002.4 668.3,1000.75 667.722,998.797C667.666,998.607 667.613,998.413 667.562,998.217L667.562,1004.53C667.562,1006.13 666.335,1007.43 664.82,1007.43L661.07,1007.43C659.556,1007.43 658.328,1006.13 658.328,1004.53C658.328,1006.13 657.1,1007.43 655.586,1007.43L651.859,1007.43C650.43,1007.43 649.256,1006.27 649.129,1004.8C649.002,1006.27 647.828,1007.43 646.398,1007.43L642.648,1007.43C641.134,1007.43 639.907,1006.13 639.907,1004.53L639.907,981.002C639.907,979.403 641.134,978.107 642.648,978.107L645.766,978.107C646.416,978.107 647.014,978.346 647.486,978.747ZM661.07,1004.53L664.82,1004.53L664.82,987.4C664.82,982.853 663.344,980.58 660.391,980.58C659.734,980.58 659.156,980.693 658.656,980.92C658.156,981.146 657.699,981.475 657.285,981.904C656.871,982.334 656.484,982.865 656.125,983.498C655.766,984.131 655.398,984.853 655.023,985.666C655.023,983.932 654.695,982.65 654.039,981.822C653.383,980.994 652.422,980.58 651.156,980.58C650.594,980.58 650.082,980.67 649.621,980.85C649.16,981.029 648.727,981.31 648.32,981.693C647.914,982.076 647.52,982.58 647.137,983.205C646.754,983.83 646.359,984.588 645.953,985.478L645.766,981.002L642.648,981.002L642.648,1004.53L646.398,1004.53L646.398,989.416C646.914,988.322 647.359,987.424 647.734,986.721C648.109,986.018 648.449,985.463 648.754,985.057C649.059,984.65 649.336,984.369 649.586,984.213C649.836,984.057 650.102,983.978 650.383,983.978C650.648,983.978 650.875,984.033 651.063,984.143C651.25,984.252 651.402,984.455 651.52,984.752C651.637,985.049 651.723,985.463 651.777,985.994C651.832,986.525 651.859,987.221 651.859,988.08L651.859,1004.53L655.586,1004.53L655.586,989.416C656.086,988.4 656.52,987.545 656.887,986.85C657.254,986.154 657.59,985.596 657.895,985.174C658.199,984.752 658.484,984.447 658.75,984.26C659.016,984.072 659.305,983.978 659.617,983.978C659.883,983.978 660.105,984.033 660.285,984.143C660.465,984.252 660.613,984.443 660.73,984.717C660.848,984.99 660.934,985.361 660.988,985.83C661.043,986.299 661.07,986.9 661.07,987.635L661.07,1004.53ZM690.555,991.525C690.555,989.853 690.332,988.342 689.887,986.99C689.441,985.639 688.785,984.49 687.918,983.545C687.051,982.6 685.984,981.869 684.719,981.353C683.453,980.838 682,980.58 680.359,980.58C678.672,980.58 677.164,980.908 675.836,981.564C674.508,982.221 673.387,983.107 672.473,984.225C671.559,985.342 670.863,986.639 670.387,988.115C669.91,989.592 669.672,991.158 669.672,992.814C669.672,994.721 669.895,996.428 670.34,997.935C670.785,999.443 671.473,1000.72 672.402,1001.76C673.332,1002.8 674.523,1003.59 675.977,1004.13C677.43,1004.68 679.164,1004.96 681.18,1004.96C682.68,1004.96 684.129,1004.86 685.527,1004.66C686.926,1004.47 688.18,1004.21 689.289,1003.9L689.289,1000.55C688.789,1000.69 688.246,1000.82 687.66,1000.94C687.074,1001.05 686.461,1001.16 685.82,1001.25C685.18,1001.35 684.516,1001.42 683.828,1001.48C683.141,1001.53 682.453,1001.56 681.766,1001.56C679.234,1001.56 677.297,1000.91 675.953,999.623C674.609,998.334 673.938,996.486 673.938,994.08L690.461,994.08C690.492,993.736 690.516,993.369 690.531,992.978C690.547,992.588 690.555,992.103 690.555,991.525ZM686.313,990.939L673.938,990.939C674.016,989.893 674.219,988.932 674.547,988.057C674.875,987.182 675.305,986.432 675.836,985.807C676.367,985.182 677,984.697 677.734,984.353C678.469,984.01 679.281,983.838 680.172,983.838C681.203,983.838 682.109,984.014 682.891,984.365C683.672,984.717 684.324,985.205 684.848,985.83C685.371,986.455 685.758,987.201 686.008,988.068C686.258,988.935 686.359,989.893 686.313,990.939ZM677.644,988.044L683.009,988.044C682.943,987.94 682.872,987.841 682.794,987.748C682.534,987.437 682.204,987.203 681.816,987.028C681.344,986.816 680.794,986.733 680.172,986.733C679.688,986.733 679.244,986.813 678.846,987C678.471,987.175 678.147,987.421 677.877,987.74C677.795,987.836 677.717,987.938 677.644,988.044ZM704.105,979.504C704.308,979.375 704.511,979.254 704.713,979.142C706.484,978.159 708.276,977.685 710.078,977.685C713.458,977.685 715.975,978.895 717.719,981.083C719.334,983.11 720.228,986.078 720.108,990.071C720.061,991.633 718.848,992.873 717.367,992.873L713.242,992.873C712.504,992.873 711.796,992.559 711.28,992.001C710.764,991.443 710.483,990.689 710.501,989.909C710.529,988.682 710.518,987.76 710.132,987.207C709.993,987.008 709.76,986.991 709.492,986.991C709.232,986.991 708.971,987.042 708.707,987.135C708.377,987.251 708.042,987.448 707.693,987.704C707.215,988.055 706.71,988.508 706.174,989.057C705.769,989.472 705.344,989.948 704.898,990.483L704.898,1004.53C704.898,1006.13 703.671,1007.43 702.156,1007.43L698.031,1007.43C696.517,1007.43 695.289,1006.13 695.289,1004.53L695.289,981.002C695.289,979.403 696.517,978.107 698.031,978.107L701.758,978.107C702.751,978.107 703.623,978.665 704.105,979.504ZM698.031,981.002L698.031,1004.53L702.156,1004.53L702.156,989.416C702.906,988.463 703.609,987.65 704.266,986.978C704.922,986.307 705.543,985.756 706.129,985.326C706.715,984.896 707.285,984.584 707.84,984.389C708.395,984.193 708.945,984.096 709.492,984.096C710.742,984.096 711.691,984.56 712.34,985.49C712.988,986.42 713.289,987.916 713.242,989.978L717.367,989.978C717.461,986.869 716.879,984.525 715.621,982.947C714.363,981.369 712.516,980.58 710.078,980.58C708.703,980.58 707.34,980.955 705.988,981.705C704.637,982.455 703.266,983.666 701.875,985.338L701.758,981.002L698.031,981.002ZM735.229,987.81C735.166,987.682 735.083,987.567 734.975,987.466C734.491,987.012 733.713,986.944 732.719,986.944C731.588,986.944 730.474,987.07 729.377,987.323C728.211,987.591 727.007,987.974 725.763,988.469C724.921,988.804 723.977,988.681 723.237,988.14C722.497,987.6 722.055,986.71 722.055,985.76L722.055,982.08C722.055,980.844 722.798,979.745 723.904,979.343C724.474,979.136 725.108,978.932 725.807,978.734C726.504,978.536 727.239,978.359 728.013,978.204C728.787,978.05 729.594,977.925 730.437,977.83C731.298,977.733 732.168,977.685 733.047,977.685C734.724,977.685 736.234,977.878 737.579,978.247C739.11,978.666 740.397,979.324 741.456,980.183C742.601,981.113 743.481,982.278 744.093,983.683C744.664,984.996 744.976,986.536 744.976,988.314L744.976,1004.53C744.976,1006.13 743.749,1007.43 742.234,1007.43L738.578,1007.43C737.733,1007.43 736.976,1007.02 736.472,1006.39C736.185,1006.54 735.897,1006.67 735.608,1006.8C733.962,1007.5 732.234,1007.85 730.422,1007.85C728.731,1007.85 727.289,1007.61 726.09,1007.18C724.739,1006.69 723.636,1006 722.761,1005.15C721.822,1004.23 721.135,1003.15 720.695,1001.92C720.295,1000.79 720.086,999.572 720.086,998.252C720.086,994.888 721.357,992.264 723.863,990.359C725.989,988.744 729.101,987.81 733.258,987.81L735.229,987.81ZM738.578,1004.53L742.234,1004.53L742.234,988.314C742.234,987.002 742.023,985.861 741.602,984.893C741.18,983.924 740.574,983.119 739.785,982.478C738.996,981.838 738.031,981.361 736.891,981.049C735.75,980.736 734.469,980.58 733.047,980.58C732.266,980.58 731.492,980.623 730.727,980.709C729.961,980.795 729.227,980.908 728.523,981.049C727.82,981.189 727.152,981.35 726.52,981.529C725.887,981.709 725.313,981.893 724.797,982.08L724.797,985.76C726.172,985.213 727.504,984.791 728.793,984.494C730.082,984.197 731.391,984.049 732.719,984.049C734.547,984.049 735.906,984.467 736.797,985.303C737.688,986.139 738.133,987.252 738.133,988.643L738.133,990.705L733.258,990.705C729.82,990.705 727.223,991.373 725.465,992.709C723.707,994.045 722.828,995.893 722.828,998.252C722.828,999.205 722.973,1000.09 723.262,1000.9C723.551,1001.71 724.004,1002.42 724.621,1003.02C725.238,1003.62 726.023,1004.1 726.977,1004.44C727.93,1004.78 729.078,1004.96 730.422,1004.96C731.875,1004.96 733.262,1004.67 734.582,1004.11C735.902,1003.55 737.203,1002.63 738.484,1001.37L738.578,1004.53ZM738.133,993.822L738.133,997.994C736.789,999.228 735.512,1000.13 734.301,1000.7C733.09,1001.27 732.016,1001.56 731.078,1001.56C730.359,1001.56 729.75,1001.46 729.25,1001.27C728.75,1001.09 728.344,1000.83 728.031,1000.51C727.719,1000.19 727.492,999.826 727.352,999.412C727.211,998.998 727.141,998.564 727.141,998.111C727.141,997.455 727.254,996.865 727.48,996.342C727.707,995.818 728.055,995.369 728.523,994.994C728.992,994.619 729.594,994.33 730.328,994.127C731.063,993.924 731.938,993.822 732.953,993.822L738.133,993.822ZM735.275,996.717L732.953,996.717C732.207,996.717 731.563,996.778 731.023,996.927C730.684,997.021 730.396,997.129 730.179,997.302C730.092,997.372 730.017,997.447 729.974,997.545C729.902,997.712 729.882,997.902 729.882,998.111C729.882,998.224 729.898,998.332 729.933,998.435C729.933,998.438 729.939,998.434 729.941,998.436C729.996,998.493 730.079,998.514 730.168,998.547C730.416,998.64 730.721,998.662 731.078,998.662C731.694,998.662 732.389,998.432 733.184,998.057C733.859,997.739 734.554,997.29 735.275,996.717ZM324.437,992.58C324.437,994.763 324.12,996.762 323.504,998.582C322.854,1000.5 321.911,1002.14 320.691,1003.51C319.459,1004.89 317.964,1005.97 316.196,1006.73C314.499,1007.47 312.576,1007.85 310.422,1007.85C308.379,1007.85 306.55,1007.52 304.933,1006.88C303.195,1006.2 301.726,1005.19 300.517,1003.87C299.323,1002.57 298.397,1000.96 297.765,999.036C297.182,997.26 296.875,995.22 296.875,992.908C296.875,990.72 297.195,988.726 297.812,986.921C298.461,985.023 299.402,983.395 300.621,982.029C301.853,980.648 303.349,979.568 305.117,978.803C306.814,978.069 308.736,977.685 310.891,977.685C312.934,977.685 314.762,978.017 316.38,978.651C318.115,979.331 319.581,980.333 320.788,981.642C321.985,982.939 322.914,984.545 323.548,986.476C324.131,988.252 324.437,990.285 324.437,992.58ZM321.695,992.58C321.695,990.643 321.449,988.924 320.957,987.424C320.465,985.924 319.754,984.67 318.824,983.662C317.895,982.654 316.762,981.889 315.426,981.365C314.09,980.842 312.578,980.58 310.891,980.58C309.125,980.58 307.547,980.881 306.156,981.482C304.766,982.084 303.586,982.928 302.617,984.014C301.648,985.1 300.906,986.396 300.391,987.904C299.875,989.412 299.617,991.08 299.617,992.908C299.617,994.861 299.863,996.588 300.355,998.088C300.848,999.588 301.559,1000.85 302.488,1001.86C303.418,1002.88 304.551,1003.65 305.887,1004.17C307.223,1004.69 308.734,1004.96 310.422,1004.96C312.188,1004.96 313.766,1004.65 315.156,1004.05C316.547,1003.45 317.727,1002.61 318.695,1001.52C319.664,1000.44 320.406,999.131 320.922,997.607C321.438,996.084 321.695,994.408 321.695,992.58ZM317.523,992.768C317.523,993.939 317.395,995.053 317.137,996.107C316.879,997.162 316.473,998.088 315.918,998.885C315.363,999.682 314.652,1000.32 313.785,1000.8C312.918,1001.27 311.875,1001.51 310.656,1001.51C309.594,1001.51 308.641,1001.33 307.797,1000.96C306.953,1000.59 306.234,1000.05 305.641,999.318C305.047,998.592 304.59,997.682 304.27,996.588C303.949,995.494 303.789,994.221 303.789,992.768C303.789,991.611 303.918,990.506 304.176,989.451C304.434,988.396 304.84,987.471 305.395,986.674C305.949,985.877 306.66,985.24 307.527,984.764C308.395,984.287 309.438,984.049 310.656,984.049C311.703,984.049 312.652,984.232 313.504,984.6C314.355,984.967 315.078,985.514 315.672,986.24C316.266,986.967 316.723,987.873 317.043,988.959C317.363,990.045 317.523,991.314 317.523,992.768ZM314.782,992.768C314.782,991.644 314.673,990.66 314.425,989.82C314.227,989.149 313.963,988.58 313.596,988.131C313.287,987.754 312.91,987.471 312.467,987.28C311.926,987.046 311.321,986.944 310.656,986.944C309.933,986.944 309.308,987.049 308.793,987.332C308.311,987.596 307.912,987.945 307.604,988.388C307.248,988.9 306.996,989.498 306.831,990.175C306.629,990.999 306.531,991.864 306.531,992.768C306.531,993.895 306.641,994.884 306.889,995.733C307.087,996.407 307.35,996.979 307.717,997.427C308.026,997.806 308.402,998.091 308.842,998.282C309.376,998.515 309.983,998.615 310.656,998.615C311.379,998.615 312.005,998.51 312.519,998.227C313.001,997.962 313.4,997.613 313.709,997.17C314.065,996.659 314.316,996.061 314.482,995.384C314.684,994.558 314.782,993.685 314.782,992.768ZM438.438,977.663L434.219,977.663C432.704,977.663 431.477,976.366 431.477,974.768L431.477,971.416C431.477,969.817 432.704,968.521 434.219,968.521L445.305,968.521C446.819,968.521 448.047,969.817 448.047,971.416L448.047,998.24L452.313,998.24C453.827,998.24 455.054,999.536 455.054,1001.13L455.054,1004.53C455.054,1006.13 453.827,1007.43 452.313,1007.43L433.445,1007.43C431.931,1007.43 430.703,1006.13 430.703,1004.53L430.703,1001.13C430.703,999.536 431.931,998.24 433.445,998.24L438.438,998.24L438.438,977.663ZM441.18,974.768L441.18,1001.13L433.445,1001.13L433.445,1004.53L452.313,1004.53L452.313,1001.13L445.305,1001.13L445.305,971.416L434.219,971.416L434.219,974.768L441.18,974.768ZM464.828,977.663L460.609,977.663C459.095,977.663 457.868,976.366 457.868,974.768L457.868,971.416C457.868,969.817 459.095,968.521 460.609,968.521L471.695,968.521C473.21,968.521 474.437,969.817 474.437,971.416L474.437,998.24L478.703,998.24C480.217,998.24 481.445,999.536 481.445,1001.13L481.445,1004.53C481.445,1006.13 480.217,1007.43 478.703,1007.43L459.836,1007.43C458.322,1007.43 457.094,1006.13 457.094,1004.53L457.094,1001.13C457.094,999.536 458.322,998.24 459.836,998.24L464.828,998.24L464.828,977.663ZM467.57,974.768L467.57,1001.13L459.836,1001.13L459.836,1004.53L478.703,1004.53L478.703,1001.13L471.695,1001.13L471.695,971.416L460.609,971.416L460.609,974.768L467.57,974.768ZM508.562,991.525C508.562,992.152 508.553,992.677 508.536,993.101C508.518,993.546 508.492,993.965 508.456,994.357C508.321,995.842 507.139,996.975 505.727,996.975L492.639,996.975C492.761,997.157 492.902,997.326 493.063,997.48C493.972,998.352 495.319,998.662 497.031,998.662C497.65,998.662 498.269,998.637 498.888,998.588C499.516,998.538 500.124,998.47 500.71,998.384C501.304,998.297 501.872,998.2 502.416,998.091C502.931,997.988 503.409,997.875 503.849,997.751C504.672,997.52 505.55,997.705 506.225,998.253C506.901,998.801 507.297,999.649 507.297,1000.55L507.297,1003.9C507.297,1005.21 506.462,1006.36 505.261,1006.7C504.05,1007.04 502.68,1007.32 501.153,1007.53C499.638,1007.74 498.069,1007.85 496.445,1007.85C494.072,1007.85 492.033,1007.51 490.322,1006.86C488.428,1006.15 486.886,1005.1 485.675,1003.74C484.469,1002.4 483.565,1000.75 482.988,998.797C482.468,997.035 482.196,995.042 482.196,992.814C482.196,990.829 482.486,988.952 483.057,987.181C483.651,985.34 484.523,983.725 485.663,982.332C486.826,980.91 488.249,979.777 489.939,978.942C491.61,978.117 493.503,977.685 495.625,977.685C497.638,977.685 499.418,978.02 500.971,978.653C502.628,979.327 504.018,980.293 505.153,981.531C506.289,982.769 507.159,984.268 507.742,986.039C508.281,987.675 508.562,989.502 508.562,991.525ZM505.82,991.525C505.82,989.853 505.598,988.342 505.152,986.99C504.707,985.639 504.051,984.49 503.184,983.545C502.316,982.6 501.25,981.869 499.984,981.353C498.719,980.838 497.266,980.58 495.625,980.58C493.938,980.58 492.43,980.908 491.102,981.564C489.773,982.221 488.652,983.107 487.738,984.225C486.824,985.342 486.129,986.639 485.652,988.115C485.176,989.592 484.938,991.158 484.938,992.814C484.938,994.721 485.16,996.428 485.605,997.935C486.051,999.443 486.738,1000.72 487.668,1001.76C488.598,1002.8 489.789,1003.59 491.242,1004.13C492.695,1004.68 494.43,1004.96 496.445,1004.96C497.945,1004.96 499.395,1004.86 500.793,1004.66C502.191,1004.47 503.445,1004.21 504.555,1003.9L504.555,1000.55C504.055,1000.69 503.512,1000.82 502.926,1000.94C502.34,1001.05 501.727,1001.16 501.086,1001.25C500.445,1001.35 499.781,1001.42 499.094,1001.48C498.406,1001.53 497.719,1001.56 497.031,1001.56C494.5,1001.56 492.563,1000.91 491.219,999.623C489.875,998.334 489.203,996.486 489.203,994.08L505.727,994.08C505.758,993.736 505.781,993.369 505.797,992.978C505.813,992.588 505.82,992.103 505.82,991.525ZM501.578,990.939L489.203,990.939C489.281,989.893 489.484,988.932 489.813,988.057C490.141,987.182 490.57,986.432 491.102,985.807C491.633,985.182 492.266,984.697 493,984.353C493.734,984.01 494.547,983.838 495.438,983.838C496.469,983.838 497.375,984.014 498.156,984.365C498.938,984.717 499.59,985.205 500.113,985.83C500.637,986.455 501.023,987.201 501.273,988.068C501.523,988.935 501.625,989.893 501.578,990.939ZM492.91,988.044L498.274,988.044C498.209,987.94 498.137,987.841 498.059,987.748C497.799,987.437 497.469,987.203 497.081,987.028C496.61,986.816 496.06,986.733 495.438,986.733C494.954,986.733 494.51,986.813 494.111,987C493.737,987.175 493.413,987.421 493.142,987.74C493.06,987.836 492.983,987.938 492.91,988.044ZM612.079,1006.08C609.307,1007.23 606.404,1007.8 603.367,1007.8C598.158,1007.8 594.197,1006.13 591.404,1003.02C588.672,999.975 587.172,995.518 587.172,989.557C587.172,986.759 587.549,984.23 588.28,981.966C589.049,979.582 590.159,977.566 591.586,975.905C593.041,974.211 594.799,972.901 596.866,971.982C598.871,971.091 601.114,970.63 603.602,970.63C605.206,970.63 606.695,970.77 608.07,971.044C609.481,971.324 610.839,971.754 612.142,972.334C613.159,972.786 613.82,973.837 613.82,975.002L613.82,979.103C613.82,980.115 613.32,981.053 612.501,981.578C611.682,982.103 610.663,982.139 609.813,981.672C608.892,981.166 607.94,980.78 606.954,980.514C605.974,980.249 604.903,980.123 603.742,980.123C602.711,980.123 601.776,980.302 600.941,980.688C600.17,981.045 599.515,981.562 598.976,982.241C598.381,982.99 597.937,983.914 597.617,984.995C597.254,986.219 597.086,987.615 597.086,989.182C597.086,992.308 597.586,994.704 598.854,996.292C599.977,997.699 601.666,998.287 603.836,998.287C604.926,998.287 605.971,998.162 606.97,997.909C607.992,997.65 608.975,997.289 609.918,996.824C610.767,996.405 611.76,996.474 612.551,997.005C613.341,997.537 613.82,998.458 613.82,999.447L613.82,1003.38C613.82,1004.58 613.129,1005.64 612.079,1006.08ZM611.078,1003.38L611.078,999.447C609.969,999.994 608.813,1000.42 607.609,1000.73C606.406,1001.03 605.148,1001.18 603.836,1001.18C600.727,1001.18 598.367,1000.17 596.758,998.158C595.148,996.143 594.344,993.15 594.344,989.182C594.344,987.291 594.563,985.607 595,984.131C595.438,982.654 596.063,981.404 596.875,980.381C597.688,979.357 598.676,978.576 599.84,978.037C601.004,977.498 602.305,977.228 603.742,977.228C605.148,977.228 606.445,977.389 607.633,977.709C608.82,978.029 609.969,978.494 611.078,979.103L611.078,975.002C609.953,974.502 608.781,974.131 607.563,973.889C606.344,973.646 605.023,973.525 603.602,973.525C601.508,973.525 599.617,973.9 597.93,974.65C596.242,975.4 594.805,976.467 593.617,977.85C592.43,979.232 591.516,980.916 590.875,982.9C590.234,984.885 589.914,987.103 589.914,989.557C589.914,994.619 591.074,998.443 593.395,1001.03C595.715,1003.62 599.039,1004.91 603.367,1004.91C606.055,1004.91 608.625,1004.4 611.078,1003.38Z" style="fill:rgb(146,146,146);"/>
        </g>
    </g>
</svg>
